<?xml version="1.0" encoding="UTF-8"?>
<svg xmlns="http://www.w3.org/2000/svg" xmlns:xlink="http://www.w3.org/1999/xlink" width="440.31pt" height="208.888pt" viewBox="0 0 440.31 208.888">
<defs>
<g>
<g id="glyph-0-0">
<path d="M 4.125 -0.265625 C 4.125 -0.53125 3.90625 -0.53125 3.78125 -0.53125 L 3.453125 -0.53125 L 3.453125 -4.515625 C 3.453125 -4.78125 3.375 -4.859375 3.125 -4.859375 L 2.53125 -4.859375 C 2.40625 -4.859375 2.1875 -4.859375 2.1875 -4.59375 C 2.1875 -4.328125 2.40625 -4.328125 2.53125 -4.328125 L 2.859375 -4.328125 L 2.859375 -3.140625 C 2.484375 -3.421875 2.15625 -3.46875 1.9375 -3.46875 C 1.0625 -3.46875 0.265625 -2.71875 0.265625 -1.703125 C 0.265625 -0.734375 1 0.046875 1.875 0.046875 C 2.296875 0.046875 2.625 -0.15625 2.859375 -0.375 C 2.859375 -0.15625 2.859375 0 3.203125 0 L 3.78125 0 C 3.90625 0 4.125 0 4.125 -0.265625 Z M 2.859375 -1.5625 C 2.859375 -1.109375 2.484375 -0.484375 1.890625 -0.484375 C 1.359375 -0.484375 0.875 -1.015625 0.875 -1.703125 C 0.875 -2.421875 1.40625 -2.9375 1.984375 -2.9375 C 2.453125 -2.9375 2.859375 -2.53125 2.859375 -2.09375 Z M 2.859375 -1.5625 "/>
</g>
<g id="glyph-0-1">
<path d="M 3.515625 -4.390625 C 3.515625 -4.90625 2.859375 -4.90625 2.734375 -4.90625 C 2.109375 -4.90625 1.453125 -4.5625 1.453125 -3.8125 L 1.453125 -3.421875 L 0.6875 -3.421875 C 0.578125 -3.421875 0.34375 -3.421875 0.34375 -3.171875 C 0.34375 -2.90625 0.5625 -2.90625 0.6875 -2.90625 L 1.453125 -2.90625 L 1.453125 -0.53125 L 0.6875 -0.53125 C 0.578125 -0.53125 0.328125 -0.53125 0.328125 -0.265625 C 0.328125 0 0.578125 0 0.6875 0 L 2.828125 0 C 2.9375 0 3.1875 0 3.1875 -0.265625 C 3.1875 -0.53125 2.9375 -0.53125 2.828125 -0.53125 L 2.0625 -0.53125 L 2.0625 -2.90625 L 3 -2.90625 C 3.125 -2.90625 3.34375 -2.90625 3.34375 -3.171875 C 3.34375 -3.421875 3.125 -3.421875 3 -3.421875 L 2.0625 -3.421875 L 2.0625 -3.796875 C 2.0625 -4.296875 2.4375 -4.375 2.78125 -4.375 C 2.796875 -4.125 3 -4.015625 3.15625 -4.015625 C 3.3125 -4.015625 3.515625 -4.140625 3.515625 -4.390625 Z M 3.515625 -4.390625 "/>
</g>
<g id="glyph-0-2">
<path d="M 3.765625 -2.421875 C 3.765625 -2.734375 3.453125 -2.734375 3.359375 -2.734375 L 0.84375 -2.734375 C 0.765625 -2.734375 0.453125 -2.734375 0.453125 -2.4375 C 0.453125 -2.125 0.75 -2.125 0.84375 -2.125 L 3.359375 -2.125 C 3.453125 -2.125 3.765625 -2.125 3.765625 -2.421875 Z M 3.765625 -2.421875 "/>
</g>
<g id="glyph-0-3">
<path d="M 3.859375 -1.40625 C 3.859375 -1.84375 3.625 -2.359375 3 -2.671875 C 3.34375 -2.90625 3.625 -3.328125 3.625 -3.796875 C 3.625 -4.421875 3.015625 -4.9375 2.109375 -4.9375 C 1.15625 -4.9375 0.59375 -4.578125 0.59375 -4 C 0.59375 -3.75 0.765625 -3.609375 0.984375 -3.609375 C 1.1875 -3.609375 1.359375 -3.765625 1.359375 -3.984375 C 1.359375 -4.125 1.328125 -4.15625 1.296875 -4.203125 C 1.546875 -4.40625 2.046875 -4.40625 2.109375 -4.40625 C 2.671875 -4.40625 3.015625 -4.109375 3.015625 -3.796875 C 3.015625 -3.6875 2.984375 -3.390625 2.71875 -3.140625 C 2.484375 -2.9375 2.265625 -2.921875 2 -2.90625 C 1.546875 -2.875 1.40625 -2.875 1.40625 -2.625 C 1.40625 -2.359375 1.625 -2.359375 1.75 -2.359375 L 2.078125 -2.359375 C 2.90625 -2.359375 3.265625 -1.796875 3.265625 -1.40625 C 3.265625 -0.9375 2.828125 -0.453125 2.109375 -0.453125 C 2 -0.453125 1.34375 -0.453125 1.03125 -0.8125 L 1.046875 -0.84375 C 1.09375 -0.921875 1.09375 -0.9375 1.109375 -1.015625 C 1.109375 -1.015625 1.125 -1.046875 1.125 -1.078125 C 1.125 -1.265625 0.96875 -1.453125 0.734375 -1.453125 C 0.53125 -1.453125 0.34375 -1.3125 0.34375 -1.046875 C 0.34375 -0.34375 1.109375 0.078125 2.109375 0.078125 C 3.1875 0.078125 3.859375 -0.65625 3.859375 -1.40625 Z M 3.859375 -1.40625 "/>
</g>
<g id="glyph-0-4">
<path d="M 3.9375 -1.71875 C 3.9375 -2.6875 3.234375 -3.46875 2.34375 -3.46875 C 1.96875 -3.46875 1.640625 -3.328125 1.359375 -3.109375 C 1.359375 -3.421875 1.1875 -3.421875 1.015625 -3.421875 L 0.421875 -3.421875 C 0.296875 -3.421875 0.09375 -3.421875 0.09375 -3.171875 C 0.09375 -2.90625 0.296875 -2.90625 0.421875 -2.90625 L 0.75 -2.90625 L 0.75 1.234375 L 0.421875 1.234375 C 0.296875 1.234375 0.09375 1.234375 0.09375 1.5 C 0.09375 1.765625 0.296875 1.765625 0.421875 1.765625 L 1.6875 1.765625 C 1.8125 1.765625 2.03125 1.765625 2.03125 1.5 C 2.03125 1.234375 1.8125 1.234375 1.6875 1.234375 L 1.359375 1.234375 L 1.359375 -0.328125 C 1.609375 -0.09375 1.921875 0.046875 2.265625 0.046875 C 3.15625 0.046875 3.9375 -0.703125 3.9375 -1.71875 Z M 3.34375 -1.71875 C 3.34375 -1 2.796875 -0.484375 2.25 -0.484375 C 1.65625 -0.484375 1.359375 -1.140625 1.359375 -1.546875 L 1.359375 -2.09375 C 1.359375 -2.546875 1.828125 -2.9375 2.3125 -2.9375 C 2.875 -2.9375 3.34375 -2.40625 3.34375 -1.71875 Z M 3.34375 -1.71875 "/>
</g>
<g id="glyph-0-5">
<path d="M 3.734375 -0.859375 C 3.734375 -1.03125 3.609375 -1.109375 3.4375 -1.109375 C 3.296875 -1.109375 3.21875 -1.09375 3.140625 -0.921875 C 2.984375 -0.5625 2.59375 -0.484375 2.34375 -0.484375 C 1.75 -0.484375 1.171875 -0.859375 1.046875 -1.5 L 3.390625 -1.5 C 3.546875 -1.5 3.734375 -1.5 3.734375 -1.796875 C 3.734375 -2.75 3.203125 -3.484375 2.171875 -3.484375 C 1.1875 -3.484375 0.421875 -2.703125 0.421875 -1.71875 C 0.421875 -0.78125 1.21875 0.046875 2.296875 0.046875 C 3.390625 0.046875 3.734375 -0.65625 3.734375 -0.859375 Z M 3.125 -2.015625 L 1.0625 -2.015625 C 1.171875 -2.5625 1.640625 -2.96875 2.171875 -2.96875 C 2.890625 -2.96875 3.0625 -2.40625 3.125 -2.015625 Z M 3.125 -2.015625 "/>
</g>
<g id="glyph-0-6">
<path d="M 4.125 -0.265625 C 4.125 -0.53125 3.90625 -0.53125 3.78125 -0.53125 L 3.453125 -0.53125 L 3.453125 -2.3125 C 3.453125 -3.109375 3.0625 -3.46875 2.40625 -3.46875 C 1.828125 -3.46875 1.4375 -3.15625 1.359375 -3.0625 C 1.359375 -3.3125 1.34375 -3.421875 1.015625 -3.421875 L 0.421875 -3.421875 C 0.296875 -3.421875 0.09375 -3.421875 0.09375 -3.171875 C 0.09375 -2.90625 0.296875 -2.90625 0.421875 -2.90625 L 0.75 -2.90625 L 0.75 -0.53125 L 0.421875 -0.53125 C 0.296875 -0.53125 0.09375 -0.53125 0.09375 -0.265625 C 0.09375 0 0.296875 0 0.421875 0 L 1.6875 0 C 1.8125 0 2.03125 0 2.03125 -0.265625 C 2.03125 -0.53125 1.8125 -0.53125 1.6875 -0.53125 L 1.359375 -0.53125 L 1.359375 -1.890625 C 1.359375 -2.65625 1.96875 -2.9375 2.375 -2.9375 C 2.734375 -2.9375 2.859375 -2.765625 2.859375 -2.296875 L 2.859375 -0.53125 L 2.59375 -0.53125 C 2.46875 -0.53125 2.25 -0.53125 2.25 -0.265625 C 2.25 0 2.46875 0 2.59375 0 L 3.78125 0 C 3.90625 0 4.125 0 4.125 -0.265625 Z M 4.125 -0.265625 "/>
</g>
<g id="glyph-0-7">
<path d="M 4.09375 -3.03125 C 4.09375 -3.28125 3.890625 -3.5 3.484375 -3.5 C 3.28125 -3.5 2.9375 -3.4375 2.65625 -3.234375 C 2.578125 -3.28125 2.28125 -3.46875 1.875 -3.46875 C 1.109375 -3.46875 0.515625 -2.875 0.515625 -2.1875 C 0.515625 -1.9375 0.609375 -1.65625 0.765625 -1.453125 C 0.703125 -1.34375 0.609375 -1.125 0.609375 -0.90625 C 0.609375 -0.671875 0.703125 -0.453125 0.796875 -0.328125 C 0.46875 -0.140625 0.234375 0.25 0.234375 0.640625 C 0.234375 1.34375 1.09375 1.8125 2.109375 1.8125 C 3.125 1.8125 3.984375 1.34375 3.984375 0.640625 C 3.984375 -0.0625 3.375 -0.46875 2.515625 -0.5 C 2.28125 -0.515625 1.6875 -0.5 1.46875 -0.53125 C 1.109375 -0.53125 1.109375 -0.90625 1.109375 -0.90625 C 1.109375 -1 1.140625 -1.0625 1.15625 -1.09375 C 1.28125 -1.015625 1.546875 -0.90625 1.875 -0.90625 C 2.640625 -0.90625 3.234375 -1.5 3.234375 -2.1875 C 3.234375 -2.46875 3.125 -2.71875 3.03125 -2.859375 C 3.1875 -2.953125 3.28125 -2.953125 3.40625 -2.96875 C 3.453125 -2.78125 3.609375 -2.703125 3.75 -2.703125 C 3.9375 -2.703125 4.09375 -2.84375 4.09375 -3.03125 Z M 2.625 -2.1875 C 2.625 -1.78125 2.296875 -1.421875 1.875 -1.421875 C 1.46875 -1.421875 1.125 -1.75 1.125 -2.1875 C 1.125 -2.609375 1.46875 -2.953125 1.875 -2.953125 C 2.28125 -2.953125 2.625 -2.609375 2.625 -2.1875 Z M 3.46875 0.640625 C 3.46875 0.96875 2.90625 1.296875 2.109375 1.296875 C 1.296875 1.296875 0.734375 0.953125 0.734375 0.640625 C 0.734375 0.328125 1.03125 0 1.453125 -0.015625 L 1.890625 -0.015625 C 2.578125 -0.015625 3.46875 -0.015625 3.46875 0.640625 Z M 3.46875 0.640625 "/>
</g>
<g id="glyph-0-8">
<path d="M 4.125 -0.265625 C 4.125 -0.53125 3.90625 -0.53125 3.78125 -0.53125 L 3.453125 -0.53125 L 3.453125 -3.078125 C 3.453125 -3.359375 3.375 -3.421875 3.125 -3.421875 L 2.53125 -3.421875 C 2.40625 -3.421875 2.1875 -3.421875 2.1875 -3.171875 C 2.1875 -2.90625 2.40625 -2.90625 2.53125 -2.90625 L 2.859375 -2.90625 L 2.859375 -1.234375 C 2.859375 -0.609375 2.28125 -0.484375 1.96875 -0.484375 C 1.359375 -0.484375 1.359375 -0.71875 1.359375 -0.953125 L 1.359375 -3.078125 C 1.359375 -3.359375 1.28125 -3.421875 1.015625 -3.421875 L 0.421875 -3.421875 C 0.296875 -3.421875 0.09375 -3.421875 0.09375 -3.171875 C 0.09375 -2.90625 0.296875 -2.90625 0.421875 -2.90625 L 0.75 -2.90625 L 0.75 -0.921875 C 0.75 -0.1875 1.25 0.046875 1.921875 0.046875 C 2.34375 0.046875 2.640625 -0.078125 2.84375 -0.234375 C 2.890625 0 3.078125 0 3.203125 0 L 3.78125 0 C 3.90625 0 4.125 0 4.125 -0.265625 Z M 4.125 -0.265625 "/>
</g>
<g id="glyph-0-9">
<path d="M 3.671875 -0.265625 C 3.671875 -0.53125 3.421875 -0.53125 3.3125 -0.53125 L 2.515625 -0.53125 L 2.515625 -3.078125 C 2.515625 -3.359375 2.4375 -3.421875 2.171875 -3.421875 L 1.046875 -3.421875 C 0.921875 -3.421875 0.6875 -3.421875 0.6875 -3.171875 C 0.6875 -2.90625 0.9375 -2.90625 1.046875 -2.90625 L 1.90625 -2.90625 L 1.90625 -0.53125 L 0.984375 -0.53125 C 0.859375 -0.53125 0.625 -0.53125 0.625 -0.265625 C 0.625 0 0.859375 0 0.984375 0 L 3.3125 0 C 3.421875 0 3.671875 0 3.671875 -0.265625 Z M 2.546875 -4.421875 C 2.546875 -4.65625 2.359375 -4.84375 2.109375 -4.84375 C 1.875 -4.84375 1.6875 -4.65625 1.6875 -4.421875 C 1.6875 -4.1875 1.875 -4 2.109375 -4 C 2.359375 -4 2.546875 -4.1875 2.546875 -4.421875 Z M 2.546875 -4.421875 "/>
</g>
<g id="glyph-0-10">
<path d="M 3.6875 -1 C 3.6875 -1.1875 3.625 -1.484375 3.3125 -1.703125 C 3 -1.953125 2.6875 -2 2.125 -2.09375 C 1.59375 -2.171875 1.109375 -2.265625 1.109375 -2.546875 C 1.109375 -2.703125 1.296875 -2.96875 2.09375 -2.96875 C 2.8125 -2.96875 2.828125 -2.71875 2.84375 -2.5625 C 2.859375 -2.3125 3.046875 -2.3125 3.140625 -2.3125 C 3.4375 -2.3125 3.4375 -2.5 3.4375 -2.65625 L 3.4375 -3.15625 C 3.4375 -3.265625 3.4375 -3.484375 3.1875 -3.484375 C 3 -3.484375 2.953125 -3.390625 2.9375 -3.34375 C 2.609375 -3.484375 2.296875 -3.484375 2.109375 -3.484375 C 0.75 -3.484375 0.578125 -2.828125 0.578125 -2.546875 C 0.578125 -1.8125 1.421875 -1.671875 2.109375 -1.5625 C 2.546875 -1.5 3.15625 -1.40625 3.15625 -1.015625 C 3.15625 -0.71875 2.859375 -0.484375 2.15625 -0.484375 C 1.671875 -0.484375 1.359375 -0.65625 1.1875 -1.125 C 1.140625 -1.25 1.109375 -1.359375 0.875 -1.359375 C 0.578125 -1.359375 0.578125 -1.15625 0.578125 -1.015625 L 0.578125 -0.296875 C 0.578125 -0.1875 0.578125 0.046875 0.84375 0.046875 C 0.921875 0.046875 1.0625 0.015625 1.140625 -0.21875 C 1.546875 0.046875 2 0.046875 2.15625 0.046875 C 3.5 0.046875 3.6875 -0.703125 3.6875 -1 Z M 3.6875 -1 "/>
</g>
<g id="glyph-1-0">
<path d="M 4.015625 -1.15625 C 4.015625 -1.46875 3.78125 -1.46875 3.6875 -1.46875 C 3.546875 -1.46875 3.359375 -1.453125 3.359375 -1.15625 C 3.34375 -0.734375 2.984375 -0.53125 2.671875 -0.53125 C 2.015625 -0.53125 2.015625 -1.015625 2.015625 -1.234375 L 2.015625 -3.28125 L 3.4375 -3.28125 C 3.5625 -3.28125 3.8125 -3.28125 3.8125 -3.5625 C 3.8125 -3.859375 3.578125 -3.859375 3.4375 -3.859375 L 2.015625 -3.859375 L 2.015625 -4.578125 C 2.015625 -4.75 2.015625 -4.953125 1.6875 -4.953125 C 1.359375 -4.953125 1.359375 -4.75 1.359375 -4.578125 L 1.359375 -3.859375 L 0.609375 -3.859375 C 0.46875 -3.859375 0.21875 -3.859375 0.21875 -3.5625 C 0.21875 -3.28125 0.46875 -3.28125 0.59375 -3.28125 L 1.359375 -3.28125 L 1.359375 -1.203125 C 1.359375 -0.265625 2 0.046875 2.625 0.046875 C 3.40625 0.046875 4.015625 -0.5 4.015625 -1.15625 Z M 4.015625 -1.15625 "/>
</g>
<g id="glyph-1-1">
<path d="M 4.359375 -3.328125 C 4.359375 -3.5 4.25 -3.90625 3.515625 -3.90625 C 3 -3.90625 2.4375 -3.6875 2 -3.203125 L 2 -3.484375 C 2 -3.78125 1.9375 -3.859375 1.625 -3.859375 L 0.625 -3.859375 C 0.5 -3.859375 0.234375 -3.859375 0.234375 -3.578125 C 0.234375 -3.28125 0.484375 -3.28125 0.625 -3.28125 L 1.34375 -3.28125 L 1.34375 -0.578125 L 0.625 -0.578125 C 0.5 -0.578125 0.234375 -0.578125 0.234375 -0.296875 C 0.234375 0 0.484375 0 0.625 0 L 3 0 C 3.125 0 3.390625 0 3.390625 -0.28125 C 3.390625 -0.578125 3.140625 -0.578125 3 -0.578125 L 2 -0.578125 L 2 -1.640625 C 2 -2.546875 2.609375 -3.328125 3.578125 -3.328125 C 3.59375 -2.984375 3.84375 -2.921875 3.96875 -2.921875 C 4.171875 -2.921875 4.359375 -3.078125 4.359375 -3.328125 Z M 4.359375 -3.328125 "/>
</g>
<g id="glyph-1-2">
<path d="M 4.640625 -0.296875 C 4.640625 -0.578125 4.40625 -0.578125 4.265625 -0.578125 C 4.125 -0.578125 3.9375 -0.578125 3.765625 -0.640625 L 3.765625 -2.53125 C 3.765625 -3.234375 3.234375 -3.9375 1.984375 -3.9375 C 1.5625 -3.9375 0.65625 -3.9375 0.65625 -3.265625 C 0.65625 -3 0.859375 -2.84375 1.078125 -2.84375 C 1.21875 -2.84375 1.5 -2.890625 1.5 -3.328125 C 1.75 -3.34375 1.90625 -3.34375 1.984375 -3.34375 C 2.6875 -3.34375 3.109375 -3.046875 3.109375 -2.5 C 1.609375 -2.484375 0.4375 -2.0625 0.4375 -1.1875 C 0.4375 -0.515625 1.046875 0.046875 1.921875 0.046875 C 2.015625 0.046875 2.703125 0.046875 3.1875 -0.296875 C 3.40625 0 3.890625 0 4.1875 0 C 4.4375 0 4.640625 0 4.640625 -0.296875 Z M 3.109375 -1.265625 C 3.109375 -1.0625 3.109375 -0.875 2.75 -0.6875 C 2.421875 -0.53125 2.015625 -0.53125 1.984375 -0.53125 C 1.453125 -0.53125 1.09375 -0.828125 1.09375 -1.1875 C 1.09375 -1.625 2 -1.9375 3.109375 -1.9375 Z M 3.109375 -1.265625 "/>
</g>
<g id="glyph-1-3">
<path d="M 4.125 -0.28125 C 4.125 -0.578125 3.875 -0.578125 3.734375 -0.578125 L 2.796875 -0.578125 L 2.796875 -3.484375 C 2.796875 -3.78125 2.71875 -3.859375 2.421875 -3.859375 L 1.125 -3.859375 C 0.984375 -3.859375 0.734375 -3.859375 0.734375 -3.578125 C 0.734375 -3.28125 0.96875 -3.28125 1.125 -3.28125 L 2.125 -3.28125 L 2.125 -0.578125 L 1.03125 -0.578125 C 0.90625 -0.578125 0.65625 -0.578125 0.65625 -0.296875 C 0.65625 0 0.90625 0 1.03125 0 L 3.734375 0 C 3.859375 0 4.125 0 4.125 -0.28125 Z M 2.8125 -4.984375 C 2.8125 -5.234375 2.609375 -5.4375 2.359375 -5.4375 C 2.109375 -5.4375 1.890625 -5.234375 1.890625 -4.984375 C 1.890625 -4.734375 2.109375 -4.515625 2.359375 -4.515625 C 2.609375 -4.515625 2.8125 -4.734375 2.8125 -4.984375 Z M 2.8125 -4.984375 "/>
</g>
<g id="glyph-1-4">
<path d="M 4.625 -0.28125 C 4.625 -0.578125 4.375 -0.578125 4.25 -0.578125 L 3.84375 -0.578125 L 3.84375 -2.609375 C 3.84375 -3.5 3.40625 -3.90625 2.671875 -3.90625 C 2.25 -3.90625 1.84375 -3.75 1.5 -3.453125 C 1.5 -3.703125 1.5 -3.859375 1.125 -3.859375 L 0.453125 -3.859375 C 0.328125 -3.859375 0.078125 -3.859375 0.078125 -3.578125 C 0.078125 -3.28125 0.3125 -3.28125 0.453125 -3.28125 L 0.84375 -3.28125 L 0.84375 -0.578125 L 0.453125 -0.578125 C 0.328125 -0.578125 0.078125 -0.578125 0.078125 -0.296875 C 0.078125 0 0.3125 0 0.453125 0 L 1.890625 0 C 2.015625 0 2.28125 0 2.28125 -0.28125 C 2.28125 -0.578125 2.03125 -0.578125 1.890625 -0.578125 L 1.5 -0.578125 L 1.5 -2.125 C 1.5 -3.015625 2.1875 -3.328125 2.625 -3.328125 C 3.0625 -3.328125 3.1875 -3.109375 3.1875 -2.578125 L 3.1875 -0.578125 L 2.90625 -0.578125 C 2.78125 -0.578125 2.515625 -0.578125 2.515625 -0.296875 C 2.515625 0 2.765625 0 2.90625 0 L 4.25 0 C 4.375 0 4.625 0 4.625 -0.28125 Z M 4.625 -0.28125 "/>
</g>
<g id="glyph-1-5">
<path d="M 4.1875 1.015625 C 4.1875 0.671875 3.859375 0.671875 3.75 0.671875 L 0.9375 0.671875 C 0.84375 0.671875 0.5 0.671875 0.5 1 C 0.5 1.34375 0.828125 1.34375 0.9375 1.34375 L 3.75 1.34375 C 3.84375 1.34375 4.1875 1.34375 4.1875 1.015625 Z M 4.1875 1.015625 "/>
</g>
<g id="glyph-1-6">
<path d="M 4.15625 -0.96875 C 4.15625 -1.15625 4.015625 -1.25 3.828125 -1.25 C 3.703125 -1.25 3.578125 -1.25 3.5 -1.046875 C 3.28125 -0.53125 2.71875 -0.53125 2.609375 -0.53125 C 2.09375 -0.53125 1.34375 -0.84375 1.15625 -1.6875 L 3.78125 -1.6875 C 3.953125 -1.6875 4.15625 -1.6875 4.15625 -2.03125 C 4.15625 -3.078125 3.578125 -3.9375 2.421875 -3.9375 C 1.328125 -3.9375 0.46875 -3.015625 0.46875 -1.953125 C 0.46875 -0.84375 1.40625 0.046875 2.546875 0.046875 C 3.75 0.046875 4.15625 -0.765625 4.15625 -0.96875 Z M 3.46875 -2.265625 L 1.171875 -2.265625 C 1.34375 -3 1.90625 -3.34375 2.421875 -3.34375 C 3.046875 -3.34375 3.40625 -2.9375 3.46875 -2.265625 Z M 3.46875 -2.265625 "/>
</g>
<g id="glyph-1-7">
<path d="M 4.109375 -1.125 C 4.109375 -1.5625 3.828125 -1.84375 3.609375 -1.984375 C 3.265625 -2.203125 3.03125 -2.25 2.1875 -2.375 C 1.8125 -2.4375 1.234375 -2.53125 1.234375 -2.859375 C 1.234375 -3.09375 1.515625 -3.34375 2.328125 -3.34375 C 3.140625 -3.34375 3.171875 -3.046875 3.171875 -2.84375 C 3.203125 -2.59375 3.4375 -2.59375 3.515625 -2.59375 C 3.84375 -2.59375 3.84375 -2.796875 3.84375 -2.96875 L 3.84375 -3.546875 C 3.84375 -3.6875 3.84375 -3.9375 3.546875 -3.9375 C 3.34375 -3.9375 3.296875 -3.828125 3.28125 -3.765625 C 2.9375 -3.9375 2.5 -3.9375 2.34375 -3.9375 C 0.78125 -3.9375 0.640625 -3.109375 0.640625 -2.859375 C 0.640625 -2.390625 1 -2.171875 1.109375 -2.109375 C 1.421875 -1.921875 1.671875 -1.875 2.59375 -1.734375 C 2.8125 -1.6875 3.53125 -1.578125 3.53125 -1.125 C 3.53125 -0.84375 3.265625 -0.53125 2.40625 -0.53125 C 1.859375 -0.53125 1.5 -0.71875 1.328125 -1.25 C 1.265625 -1.4375 1.234375 -1.53125 0.96875 -1.53125 C 0.640625 -1.53125 0.640625 -1.328125 0.640625 -1.140625 L 0.640625 -0.328125 C 0.640625 -0.203125 0.640625 0.046875 0.9375 0.046875 C 1.0625 0.046875 1.1875 -0.015625 1.265625 -0.265625 C 1.703125 0.046875 2.234375 0.046875 2.40625 0.046875 C 3.890625 0.046875 4.109375 -0.78125 4.109375 -1.125 Z M 4.109375 -1.125 "/>
</g>
<g id="glyph-1-8">
<path d="M 4.390625 -1.9375 C 4.390625 -3 3.609375 -3.90625 2.609375 -3.90625 C 2.1875 -3.90625 1.8125 -3.75 1.5 -3.484375 C 1.5 -3.8125 1.390625 -3.859375 1.125 -3.859375 L 0.453125 -3.859375 C 0.328125 -3.859375 0.078125 -3.859375 0.078125 -3.578125 C 0.078125 -3.28125 0.3125 -3.28125 0.453125 -3.28125 L 0.84375 -3.28125 L 0.84375 1.40625 L 0.453125 1.40625 C 0.328125 1.40625 0.078125 1.40625 0.078125 1.6875 C 0.078125 1.984375 0.3125 1.984375 0.453125 1.984375 L 1.890625 1.984375 C 2.015625 1.984375 2.28125 1.984375 2.28125 1.703125 C 2.28125 1.40625 2.03125 1.40625 1.890625 1.40625 L 1.5 1.40625 L 1.5 -0.390625 C 1.78125 -0.109375 2.125 0.046875 2.53125 0.046875 C 3.515625 0.046875 4.390625 -0.8125 4.390625 -1.9375 Z M 3.71875 -1.9375 C 3.71875 -1.140625 3.140625 -0.53125 2.484375 -0.53125 C 1.859375 -0.53125 1.5 -1.265625 1.5 -1.734375 L 1.5 -2.359375 C 1.5 -2.890625 2.03125 -3.328125 2.578125 -3.328125 C 3.203125 -3.328125 3.71875 -2.71875 3.71875 -1.9375 Z M 3.71875 -1.9375 "/>
</g>
<g id="glyph-1-9">
<path d="M 4.21875 -0.28125 C 4.21875 -0.578125 3.984375 -0.578125 3.84375 -0.578125 L 2.671875 -0.578125 L 2.671875 -5.09375 C 2.671875 -5.390625 2.609375 -5.46875 2.296875 -5.46875 L 0.84375 -5.46875 C 0.71875 -5.46875 0.46875 -5.46875 0.46875 -5.1875 C 0.46875 -4.890625 0.703125 -4.890625 0.84375 -4.890625 L 2.015625 -4.890625 L 2.015625 -0.578125 L 0.84375 -0.578125 C 0.71875 -0.578125 0.46875 -0.578125 0.46875 -0.296875 C 0.46875 0 0.703125 0 0.84375 0 L 3.84375 0 C 3.96875 0 4.21875 0 4.21875 -0.28125 Z M 4.21875 -0.28125 "/>
</g>
<g id="glyph-1-10">
<path d="M 3.90625 0.46875 C 3.90625 0.328125 3.828125 0.28125 3.75 0.21875 C 2.5625 -0.5625 2.1875 -1.796875 2.1875 -2.734375 C 2.1875 -3.40625 2.375 -4 2.578125 -4.390625 C 2.9375 -5.078125 3.375 -5.4375 3.796875 -5.71875 C 3.859375 -5.765625 3.90625 -5.84375 3.90625 -5.9375 C 3.90625 -6.03125 3.859375 -6.21875 3.609375 -6.21875 C 3.40625 -6.21875 2.65625 -5.6875 2.15625 -4.921875 C 1.6875 -4.171875 1.53125 -3.375 1.53125 -2.734375 C 1.53125 -2.140625 1.65625 -1.296875 2.25 -0.4375 C 2.6875 0.203125 3.390625 0.75 3.609375 0.75 C 3.859375 0.75 3.90625 0.5625 3.90625 0.46875 Z M 3.90625 0.46875 "/>
</g>
<g id="glyph-1-11">
<path d="M 4.4375 -0.28125 C 4.4375 -0.578125 4.1875 -0.578125 4.046875 -0.578125 L 3.84375 -0.578125 L 2.625 -2.921875 L 3.59375 -4.890625 L 3.796875 -4.890625 C 3.921875 -4.890625 4.171875 -4.890625 4.171875 -5.171875 C 4.171875 -5.46875 3.9375 -5.46875 3.796875 -5.46875 L 2.84375 -5.46875 C 2.703125 -5.46875 2.46875 -5.46875 2.46875 -5.1875 C 2.46875 -4.890625 2.6875 -4.890625 2.875 -4.890625 L 2.296875 -3.6875 L 1.671875 -4.890625 C 1.828125 -4.890625 2.0625 -4.890625 2.0625 -5.1875 C 2.0625 -5.46875 1.8125 -5.46875 1.6875 -5.46875 L 0.734375 -5.46875 C 0.59375 -5.46875 0.34375 -5.46875 0.34375 -5.1875 C 0.34375 -4.890625 0.59375 -4.890625 0.734375 -4.890625 L 0.9375 -4.890625 L 1.96875 -2.921875 L 0.828125 -0.578125 L 0.625 -0.578125 C 0.5 -0.578125 0.25 -0.578125 0.25 -0.296875 C 0.25 0 0.484375 0 0.625 0 L 1.578125 0 C 1.703125 0 1.953125 0 1.953125 -0.28125 C 1.953125 -0.578125 1.734375 -0.578125 1.546875 -0.578125 L 2.296875 -2.234375 L 3.109375 -0.578125 C 2.953125 -0.578125 2.71875 -0.578125 2.71875 -0.28125 C 2.71875 0 2.96875 0 3.09375 0 L 4.046875 0 C 4.1875 0 4.4375 0 4.4375 -0.28125 Z M 4.4375 -0.28125 "/>
</g>
<g id="glyph-1-12">
<path d="M 3.109375 -0.234375 C 3.109375 -0.75 2.78125 -1.140625 2.359375 -1.140625 C 2 -1.140625 1.78125 -0.875 1.78125 -0.578125 C 1.78125 -0.234375 2.015625 0 2.359375 0 C 2.421875 0 2.484375 -0.015625 2.5 -0.015625 C 2.453125 0.171875 2.296875 0.515625 1.828125 0.671875 C 1.75 0.703125 1.59375 0.75 1.59375 0.953125 C 1.59375 1.078125 1.734375 1.25 1.890625 1.25 C 2.1875 1.25 3.109375 0.765625 3.109375 -0.234375 Z M 3.109375 -0.234375 "/>
</g>
<g id="glyph-1-13">
<path d="M 4.46875 -3.578125 C 4.46875 -3.859375 4.21875 -3.859375 4.078125 -3.859375 L 3.046875 -3.859375 C 2.90625 -3.859375 2.65625 -3.859375 2.65625 -3.578125 C 2.65625 -3.453125 2.703125 -3.328125 2.84375 -3.296875 C 2.890625 -3.28125 3.125 -3.28125 3.265625 -3.28125 L 2.828125 -1.9375 C 2.578125 -1.15625 2.484375 -0.859375 2.4375 -0.6875 L 2.421875 -0.6875 C 2.359375 -0.9375 2.1875 -1.40625 1.953125 -2.03125 C 1.75 -2.5625 1.6875 -2.703125 1.46875 -3.28125 C 1.609375 -3.28125 1.828125 -3.28125 1.875 -3.296875 C 2 -3.34375 2.0625 -3.4375 2.0625 -3.578125 C 2.0625 -3.859375 1.8125 -3.859375 1.65625 -3.859375 L 0.640625 -3.859375 C 0.5 -3.859375 0.234375 -3.859375 0.234375 -3.578125 C 0.234375 -3.40625 0.34375 -3.328125 0.421875 -3.296875 C 0.46875 -3.28125 0.71875 -3.28125 0.890625 -3.28125 L 2.109375 -0.140625 C 2.125 -0.109375 2.15625 0 2.15625 0 C 2.15625 0 1.953125 0.71875 1.8125 0.96875 C 1.625 1.328125 1.359375 1.4375 1.140625 1.453125 L 1.203125 1.28125 C 1.1875 0.96875 0.953125 0.875 0.796875 0.875 C 0.546875 0.875 0.390625 1.046875 0.390625 1.296875 C 0.390625 1.640625 0.65625 2.03125 1.125 2.03125 C 1.75 2.03125 2.234375 1.484375 2.5 0.703125 L 3.828125 -3.28125 C 3.984375 -3.28125 4.234375 -3.28125 4.28125 -3.296875 C 4.34375 -3.3125 4.46875 -3.375 4.46875 -3.578125 Z M 4.46875 -3.578125 "/>
</g>
<g id="glyph-1-14">
<path d="M 4.25 -0.375 L 4.25 -0.921875 C 4.25 -1.09375 4.25 -1.296875 3.921875 -1.296875 C 3.59375 -1.296875 3.59375 -1.09375 3.59375 -0.921875 L 3.59375 -0.578125 L 1.296875 -0.578125 L 4.09375 -3.234375 C 4.21875 -3.34375 4.21875 -3.421875 4.21875 -3.53125 C 4.21875 -3.859375 4.015625 -3.859375 3.828125 -3.859375 L 0.828125 -3.859375 C 0.515625 -3.859375 0.4375 -3.78125 0.4375 -3.46875 L 0.4375 -3.046875 C 0.4375 -2.875 0.4375 -2.671875 0.765625 -2.671875 C 1.09375 -2.671875 1.09375 -2.875 1.09375 -3.046875 L 1.09375 -3.28125 L 3.21875 -3.28125 L 0.421875 -0.625 C 0.296875 -0.515625 0.296875 -0.4375 0.296875 -0.328125 C 0.296875 0 0.5 0 0.6875 0 L 3.875 0 C 4.171875 0 4.25 -0.078125 4.25 -0.375 Z M 4.25 -0.375 "/>
</g>
<g id="glyph-1-15">
<path d="M 4.359375 -3.40625 C 4.359375 -3.75 4.015625 -3.75 3.890625 -3.75 L 0.8125 -3.75 C 0.6875 -3.75 0.328125 -3.75 0.328125 -3.40625 C 0.328125 -3.078125 0.65625 -3.078125 0.75 -3.078125 L 3.9375 -3.078125 C 4.03125 -3.078125 4.359375 -3.078125 4.359375 -3.40625 Z M 4.359375 -2.0625 C 4.359375 -2.390625 4.03125 -2.390625 3.9375 -2.390625 L 0.75 -2.390625 C 0.65625 -2.390625 0.328125 -2.390625 0.328125 -2.0625 C 0.328125 -1.71875 0.6875 -1.71875 0.8125 -1.71875 L 3.890625 -1.71875 C 4.015625 -1.71875 4.359375 -1.71875 4.359375 -2.0625 Z M 4.359375 -2.0625 "/>
</g>
<g id="glyph-1-16">
<path d="M 4.265625 -2.734375 C 4.265625 -4.390625 3.34375 -5.5625 2.34375 -5.5625 C 1.328125 -5.5625 0.4375 -4.375 0.4375 -2.734375 C 0.4375 -1.078125 1.34375 0.09375 2.34375 0.09375 C 3.359375 0.09375 4.265625 -1.09375 4.265625 -2.734375 Z M 3.59375 -2.828125 C 3.59375 -1.53125 3.046875 -0.484375 2.34375 -0.484375 C 1.640625 -0.484375 1.09375 -1.546875 1.09375 -2.828125 C 1.09375 -4.125 1.703125 -4.984375 2.34375 -4.984375 C 2.984375 -4.984375 3.59375 -4.125 3.59375 -2.828125 Z M 3.59375 -2.828125 "/>
</g>
<g id="glyph-1-17">
<path d="M 2.921875 -0.5625 C 2.921875 -0.890625 2.640625 -1.140625 2.359375 -1.140625 C 2.015625 -1.140625 1.78125 -0.859375 1.78125 -0.578125 C 1.78125 -0.234375 2.0625 0 2.34375 0 C 2.671875 0 2.921875 -0.28125 2.921875 -0.5625 Z M 2.921875 -0.5625 "/>
</g>
<g id="glyph-1-18">
<path d="M 4.21875 -0.375 L 4.21875 -0.640625 C 4.21875 -0.8125 4.21875 -1.015625 3.890625 -1.015625 C 3.5625 -1.015625 3.5625 -0.828125 3.5625 -0.578125 L 1.546875 -0.578125 C 2.015625 -1 3.03125 -1.796875 3.25 -2 C 3.578125 -2.3125 4.21875 -2.921875 4.21875 -3.8125 C 4.21875 -4.875 3.34375 -5.5625 2.234375 -5.5625 C 1.1875 -5.5625 0.46875 -4.859375 0.46875 -4.09375 C 0.46875 -3.734375 0.75 -3.640625 0.890625 -3.640625 C 1.0625 -3.640625 1.296875 -3.796875 1.296875 -4.0625 C 1.296875 -4.25 1.234375 -4.3125 1.1875 -4.359375 C 1.328125 -4.75 1.734375 -4.984375 2.1875 -4.984375 C 2.90625 -4.984375 3.5625 -4.578125 3.5625 -3.8125 C 3.5625 -3.171875 3.078125 -2.640625 2.71875 -2.34375 L 0.59375 -0.5625 C 0.53125 -0.5 0.46875 -0.4375 0.46875 -0.296875 C 0.46875 0 0.703125 0 0.84375 0 L 3.84375 0 C 4.140625 0 4.21875 -0.078125 4.21875 -0.375 Z M 4.21875 -0.375 "/>
</g>
<g id="glyph-1-19">
<path d="M 3.15625 -2.734375 C 3.15625 -3.328125 3.03125 -4.1875 2.4375 -5.03125 C 2 -5.671875 1.3125 -6.21875 1.078125 -6.21875 C 0.828125 -6.21875 0.78125 -6.015625 0.78125 -5.9375 C 0.78125 -5.796875 0.875 -5.734375 0.953125 -5.6875 C 2.125 -4.90625 2.5 -3.671875 2.5 -2.734375 C 2.5 -2.0625 2.3125 -1.484375 2.109375 -1.078125 C 1.75 -0.390625 1.3125 -0.03125 0.890625 0.25 C 0.828125 0.296875 0.78125 0.390625 0.78125 0.46875 C 0.78125 0.5625 0.828125 0.75 1.078125 0.75 C 1.28125 0.75 2.03125 0.21875 2.53125 -0.5625 C 3.015625 -1.296875 3.15625 -2.09375 3.15625 -2.734375 Z M 3.15625 -2.734375 "/>
</g>
<g id="glyph-2-0">
<path d="M 2.65625 -4.34375 L 1.84375 -4.34375 L 1.84375 -5.390625 L 0.671875 -5.390625 L 0.671875 -4.34375 L 0.078125 -4.34375 L 0.078125 -3.453125 L 0.671875 -3.453125 L 0.671875 -1.171875 C 0.671875 -0.375 1.15625 0.0625 2.015625 0.0625 C 2.25 0.0625 2.515625 0.03125 2.78125 -0.046875 L 2.609375 -0.921875 C 2.53125 -0.890625 2.328125 -0.875 2.234375 -0.875 C 1.953125 -0.875 1.84375 -1 1.84375 -1.265625 L 1.84375 -3.453125 L 2.65625 -3.453125 Z M 2.65625 -4.34375 "/>
</g>
<g id="glyph-2-1">
<path d="M 0.5 0 L 1.671875 0 L 1.671875 -2.46875 C 1.671875 -3.015625 2.0625 -3.390625 2.59375 -3.390625 C 2.765625 -3.390625 3 -3.359375 3.09375 -3.328125 L 3.09375 -4.375 C 3 -4.390625 2.84375 -4.40625 2.71875 -4.40625 C 2.234375 -4.40625 1.828125 -4.125 1.671875 -3.59375 L 1.625 -3.59375 L 1.625 -4.34375 L 0.5 -4.34375 Z M 0.5 0 "/>
</g>
<g id="glyph-2-2">
<path d="M 1.71875 0.078125 C 2.359375 0.078125 2.78125 -0.203125 2.984375 -0.609375 L 3.015625 -0.609375 L 3.015625 0 L 4.125 0 L 4.125 -2.921875 C 4.125 -3.984375 3.21875 -4.40625 2.28125 -4.40625 C 1.3125 -4.40625 0.609375 -3.96875 0.390625 -3.21875 L 1.453125 -3.03125 C 1.546875 -3.3125 1.828125 -3.546875 2.28125 -3.546875 C 2.71875 -3.546875 2.953125 -3.328125 2.953125 -2.953125 L 2.953125 -2.9375 C 2.953125 -2.65625 2.65625 -2.625 1.90625 -2.546875 C 1.046875 -2.46875 0.265625 -2.1875 0.265625 -1.21875 C 0.265625 -0.359375 0.890625 0.078125 1.71875 0.078125 Z M 2.046875 -0.734375 C 1.65625 -0.734375 1.390625 -0.90625 1.390625 -1.25 C 1.390625 -1.59375 1.671875 -1.765625 2.109375 -1.828125 C 2.359375 -1.859375 2.828125 -1.921875 2.96875 -2.03125 L 2.96875 -1.5625 C 2.96875 -1.09375 2.59375 -0.734375 2.046875 -0.734375 Z M 2.046875 -0.734375 "/>
</g>
<g id="glyph-2-3">
<path d="M 0.5 0 L 1.671875 0 L 1.671875 -4.34375 L 0.5 -4.34375 Z M 1.078125 -4.921875 C 1.4375 -4.921875 1.71875 -5.1875 1.71875 -5.515625 C 1.71875 -5.84375 1.4375 -6.109375 1.078125 -6.109375 C 0.734375 -6.109375 0.4375 -5.84375 0.4375 -5.515625 C 0.4375 -5.1875 0.734375 -4.921875 1.078125 -4.921875 Z M 1.078125 -4.921875 "/>
</g>
<g id="glyph-2-4">
<path d="M 1.671875 -2.515625 C 1.671875 -3.09375 2.015625 -3.421875 2.515625 -3.421875 C 3 -3.421875 3.296875 -3.109375 3.296875 -2.5625 L 3.296875 0 L 4.46875 0 L 4.46875 -2.765625 C 4.46875 -3.78125 3.875 -4.40625 2.96875 -4.40625 C 2.296875 -4.40625 1.859375 -4.0625 1.609375 -3.453125 L 1.59375 -4.34375 L 0.5 -4.34375 L 0.5 0 L 1.671875 0 Z M 1.671875 -2.515625 "/>
</g>
<g id="glyph-2-5">
<path d="M 2.46875 0.078125 C 3.46875 0.078125 4.171875 -0.390625 4.375 -1.109375 L 3.328125 -1.3125 C 3.203125 -0.96875 2.890625 -0.796875 2.484375 -0.796875 C 1.890625 -0.796875 1.5 -1.15625 1.46875 -1.875 L 4.453125 -1.875 L 4.453125 -2.203125 C 4.453125 -3.6875 3.546875 -4.40625 2.40625 -4.40625 C 1.125 -4.40625 0.3125 -3.5 0.3125 -2.15625 C 0.3125 -0.78125 1.125 0.078125 2.46875 0.078125 Z M 1.484375 -2.609375 C 1.53125 -3.140625 1.859375 -3.53125 2.421875 -3.53125 C 2.953125 -3.53125 3.265625 -3.171875 3.328125 -2.609375 Z M 1.484375 -2.609375 "/>
</g>
<g id="glyph-2-6">
<path d="M 2.21875 0.078125 C 3.359375 0.078125 4.171875 -0.484375 4.171875 -1.34375 C 4.171875 -1.953125 3.765625 -2.34375 2.921875 -2.515625 L 2.140625 -2.671875 C 1.734375 -2.765625 1.578125 -2.90625 1.578125 -3.125 C 1.578125 -3.390625 1.875 -3.5625 2.265625 -3.5625 C 2.6875 -3.5625 2.921875 -3.359375 3.015625 -3.0625 L 4.0625 -3.25 C 3.890625 -3.953125 3.28125 -4.40625 2.25 -4.40625 C 1.140625 -4.40625 0.421875 -3.890625 0.421875 -3.046875 C 0.421875 -2.40625 0.828125 -1.984375 1.671875 -1.828125 L 2.421875 -1.671875 C 2.796875 -1.59375 2.984375 -1.453125 2.984375 -1.21875 C 2.984375 -0.953125 2.703125 -0.765625 2.265625 -0.765625 C 1.78125 -0.765625 1.5 -0.96875 1.390625 -1.375 L 0.296875 -1.1875 C 0.453125 -0.375 1.171875 0.078125 2.21875 0.078125 Z M 2.21875 0.078125 "/>
</g>
<g id="glyph-2-7">
<path d="M 1.71875 0 L 3.046875 0 L 4.65625 -4.34375 L 3.4375 -4.34375 L 2.703125 -2.09375 C 2.59375 -1.703125 2.5 -1.3125 2.40625 -0.90625 C 2.3125 -1.3125 2.21875 -1.703125 2.09375 -2.09375 L 1.359375 -4.34375 L 0.125 -4.34375 Z M 1.71875 0 "/>
</g>
<g id="glyph-3-0">
<path d="M 2.46875 0.078125 C 3.625 0.078125 4.453125 -0.59375 4.453125 -1.546875 C 4.453125 -2.265625 3.953125 -2.890625 3.328125 -3.015625 L 3.328125 -3.046875 C 3.875 -3.1875 4.234375 -3.71875 4.234375 -4.328125 C 4.234375 -5.21875 3.484375 -5.875 2.46875 -5.875 C 1.4375 -5.875 0.6875 -5.21875 0.6875 -4.328125 C 0.6875 -3.71875 1.046875 -3.1875 1.609375 -3.046875 L 1.609375 -3.015625 C 0.953125 -2.890625 0.46875 -2.265625 0.46875 -1.546875 C 0.46875 -0.59375 1.28125 0.078125 2.46875 0.078125 Z M 2.46875 -0.5625 C 1.6875 -0.5625 1.203125 -0.96875 1.203125 -1.578125 C 1.203125 -2.21875 1.734375 -2.6875 2.46875 -2.6875 C 3.171875 -2.6875 3.71875 -2.21875 3.71875 -1.578125 C 3.71875 -0.96875 3.234375 -0.5625 2.46875 -0.5625 Z M 2.46875 -3.296875 C 1.84375 -3.296875 1.40625 -3.6875 1.40625 -4.28125 C 1.40625 -4.859375 1.828125 -5.234375 2.46875 -5.234375 C 3.09375 -5.234375 3.515625 -4.859375 3.515625 -4.28125 C 3.515625 -3.6875 3.078125 -3.296875 2.46875 -3.296875 Z M 2.46875 -3.296875 "/>
</g>
<g id="glyph-3-1">
<path d="M 2.515625 0.078125 C 3.8125 0.078125 4.546875 -1 4.546875 -2.890625 C 4.546875 -4.78125 3.796875 -5.875 2.515625 -5.875 C 1.234375 -5.875 0.46875 -4.78125 0.46875 -2.890625 C 0.46875 -1 1.21875 0.078125 2.515625 0.078125 Z M 2.515625 -0.5625 C 1.671875 -0.5625 1.1875 -1.421875 1.1875 -2.890625 C 1.1875 -4.375 1.671875 -5.234375 2.515625 -5.234375 C 3.359375 -5.234375 3.84375 -4.375 3.84375 -2.890625 C 3.84375 -1.421875 3.359375 -0.5625 2.515625 -0.5625 Z M 2.515625 -0.5625 "/>
</g>
<g id="glyph-3-2">
<path d="M 5.796875 0.109375 C 6.53125 0.109375 6.921875 -0.421875 6.921875 -1.0625 L 6.921875 -1.375 C 6.921875 -2 6.546875 -2.546875 5.796875 -2.546875 C 5.0625 -2.546875 4.65625 -2 4.65625 -1.375 L 4.65625 -1.0625 C 4.65625 -0.421875 5.046875 0.109375 5.796875 0.109375 Z M 2.03125 -3.234375 C 2.765625 -3.234375 3.171875 -3.78125 3.171875 -4.40625 L 3.171875 -4.71875 C 3.171875 -5.34375 2.78125 -5.890625 2.03125 -5.890625 C 1.296875 -5.890625 0.890625 -5.359375 0.890625 -4.71875 L 0.890625 -4.40625 C 0.890625 -3.78125 1.296875 -3.234375 2.03125 -3.234375 Z M 1.578125 0 L 2.234375 0 L 6.21875 -5.796875 L 5.5625 -5.796875 Z M 5.796875 -0.390625 C 5.390625 -0.390625 5.25 -0.71875 5.25 -1.0625 L 5.25 -1.375 C 5.25 -1.71875 5.40625 -2.03125 5.796875 -2.03125 C 6.203125 -2.03125 6.328125 -1.71875 6.328125 -1.375 L 6.328125 -1.0625 C 6.328125 -0.71875 6.1875 -0.390625 5.796875 -0.390625 Z M 2.03125 -3.75 C 1.640625 -3.75 1.484375 -4.0625 1.484375 -4.40625 L 1.484375 -4.71875 C 1.484375 -5.0625 1.640625 -5.390625 2.03125 -5.390625 C 2.4375 -5.390625 2.578125 -5.0625 2.578125 -4.71875 L 2.578125 -4.40625 C 2.578125 -4.0625 2.421875 -3.75 2.03125 -3.75 Z M 2.03125 -3.75 "/>
</g>
<g id="glyph-3-3">
<path d="M 0.59375 0 L 4.296875 0 L 4.296875 -0.65625 L 1.625 -0.65625 L 1.625 -0.703125 L 2.890625 -2.046875 C 3.90625 -3.140625 4.1875 -3.625 4.1875 -4.25 C 4.1875 -5.15625 3.453125 -5.875 2.421875 -5.875 C 1.390625 -5.875 0.609375 -5.171875 0.609375 -4.15625 L 1.328125 -4.15625 C 1.328125 -4.8125 1.75 -5.234375 2.40625 -5.234375 C 3.015625 -5.234375 3.5 -4.859375 3.5 -4.25 C 3.5 -3.71875 3.171875 -3.3125 2.53125 -2.625 L 0.59375 -0.53125 Z M 0.59375 0 "/>
</g>
<g id="glyph-3-4">
<path d="M 2.328125 -4.34375 L 1.4375 -4.34375 L 1.4375 -5.390625 L 0.734375 -5.390625 L 0.734375 -4.34375 L 0.078125 -4.34375 L 0.078125 -3.75 L 0.734375 -3.75 L 0.734375 -1.078125 C 0.734375 -0.359375 1.171875 0.046875 1.921875 0.046875 C 2.109375 0.046875 2.296875 0.03125 2.453125 -0.015625 L 2.296875 -0.609375 C 2.1875 -0.59375 2.03125 -0.5625 1.9375 -0.5625 C 1.578125 -0.5625 1.4375 -0.734375 1.4375 -1.125 L 1.4375 -3.75 L 2.328125 -3.75 Z M 2.328125 -4.34375 "/>
</g>
<g id="glyph-3-5">
<path d="M 1.3125 -2.609375 C 1.3125 -3.34375 1.78125 -3.78125 2.40625 -3.78125 C 3.015625 -3.78125 3.390625 -3.375 3.390625 -2.703125 L 3.390625 0 L 4.09375 0 L 4.09375 -2.765625 C 4.09375 -3.859375 3.5 -4.40625 2.625 -4.40625 C 2.046875 -4.40625 1.59375 -4.171875 1.3125 -3.59375 L 1.3125 -5.796875 L 0.609375 -5.796875 L 0.609375 0 L 1.3125 0 Z M 1.3125 -2.609375 "/>
</g>
<g id="glyph-3-6">
<path d="M 2.4375 0.09375 C 3.328125 0.09375 3.984375 -0.359375 4.1875 -1.015625 L 3.515625 -1.203125 C 3.34375 -0.75 2.953125 -0.53125 2.453125 -0.53125 C 1.671875 -0.53125 1.140625 -1.03125 1.109375 -1.9375 L 4.25 -1.9375 L 4.25 -2.234375 C 4.25 -3.84375 3.28125 -4.40625 2.359375 -4.40625 C 1.171875 -4.40625 0.40625 -3.46875 0.40625 -2.140625 C 0.40625 -0.796875 1.1875 0.09375 2.4375 0.09375 Z M 1.109375 -2.53125 C 1.15625 -3.1875 1.609375 -3.78125 2.359375 -3.78125 C 3.078125 -3.78125 3.484375 -3.265625 3.546875 -2.53125 Z M 1.109375 -2.53125 "/>
</g>
<g id="glyph-3-7">
<path d="M 0.609375 0 L 1.3125 0 L 1.3125 -2.734375 C 1.3125 -3.4375 1.78125 -3.796875 2.28125 -3.796875 C 2.78125 -3.796875 3.140625 -3.46875 3.140625 -2.984375 L 3.140625 0 L 3.84375 0 L 3.84375 -2.84375 C 3.84375 -3.390625 4.203125 -3.796875 4.78125 -3.796875 C 5.25 -3.796875 5.671875 -3.546875 5.671875 -2.90625 L 5.671875 0 L 6.359375 0 L 6.359375 -2.9375 C 6.359375 -3.9375 5.75 -4.421875 5 -4.421875 C 4.359375 -4.421875 3.828125 -4.09375 3.625 -3.546875 C 3.46875 -4.078125 3.09375 -4.421875 2.515625 -4.421875 C 2 -4.421875 1.515625 -4.140625 1.296875 -3.546875 L 1.296875 -4.34375 L 0.609375 -4.34375 Z M 0.609375 0 "/>
</g>
<g id="glyph-3-8">
<path d="M 2.390625 0.09375 C 3.578125 0.09375 4.375 -0.8125 4.375 -2.140625 C 4.375 -3.515625 3.578125 -4.40625 2.390625 -4.40625 C 1.203125 -4.40625 0.40625 -3.515625 0.40625 -2.140625 C 0.40625 -0.8125 1.203125 0.09375 2.390625 0.09375 Z M 2.390625 -0.53125 C 1.515625 -0.53125 1.109375 -1.296875 1.109375 -2.140625 C 1.109375 -3.015625 1.515625 -3.78125 2.390625 -3.78125 C 3.265625 -3.78125 3.671875 -3.015625 3.671875 -2.140625 C 3.671875 -1.296875 3.265625 -0.53125 2.390625 -0.53125 Z M 2.390625 -0.53125 "/>
</g>
<g id="glyph-3-9">
<path d="M 2.25 0.09375 C 3.078125 0.09375 3.359375 -0.4375 3.515625 -0.671875 L 3.59375 -0.671875 L 3.59375 0 L 4.265625 0 L 4.265625 -5.796875 L 3.5625 -5.796875 L 3.5625 -3.65625 L 3.515625 -3.65625 C 3.359375 -3.875 3.09375 -4.40625 2.25 -4.40625 C 1.15625 -4.40625 0.40625 -3.546875 0.40625 -2.15625 C 0.40625 -0.78125 1.15625 0.09375 2.25 0.09375 Z M 2.34375 -0.53125 C 1.53125 -0.53125 1.109375 -1.25 1.109375 -2.171875 C 1.109375 -3.078125 1.53125 -3.78125 2.34375 -3.78125 C 3.15625 -3.78125 3.578125 -3.125 3.578125 -2.171875 C 3.578125 -1.203125 3.140625 -0.53125 2.34375 -0.53125 Z M 2.34375 -0.53125 "/>
</g>
<g id="glyph-3-10">
<path d="M 1.3125 -5.796875 L 0.609375 -5.796875 L 0.609375 0 L 1.3125 0 Z M 1.3125 -5.796875 "/>
</g>
<g id="glyph-3-11">
<path d="M 2.09375 0.09375 C 3.109375 0.09375 3.8125 -0.46875 3.8125 -1.21875 C 3.8125 -1.828125 3.4375 -2.21875 2.65625 -2.40625 L 1.984375 -2.5625 C 1.484375 -2.671875 1.265625 -2.859375 1.265625 -3.171875 C 1.265625 -3.546875 1.65625 -3.8125 2.171875 -3.8125 C 2.734375 -3.8125 2.96875 -3.5 3.09375 -3.1875 L 3.734375 -3.359375 C 3.53125 -3.96875 3.0625 -4.40625 2.15625 -4.40625 C 1.234375 -4.40625 0.546875 -3.875 0.546875 -3.140625 C 0.546875 -2.53125 0.9375 -2.140625 1.71875 -1.953125 L 2.4375 -1.78125 C 2.875 -1.671875 3.078125 -1.484375 3.078125 -1.171875 C 3.078125 -0.828125 2.6875 -0.515625 2.078125 -0.515625 C 1.5625 -0.515625 1.203125 -0.734375 1.078125 -1.21875 L 0.421875 -1.046875 C 0.578125 -0.296875 1.203125 0.09375 2.09375 0.09375 Z M 2.09375 0.09375 "/>
</g>
<g id="glyph-4-0">
<path d="M 0.75 -2.390625 C 0.75 -1.390625 1.046875 -0.359375 1.625 0.625 L 2.21875 0.625 C 1.625 -0.578125 1.359375 -1.484375 1.359375 -2.390625 C 1.359375 -3.375 1.6875 -4.625 2.21875 -5.703125 L 1.625 -5.703125 C 1.109375 -4.859375 0.75 -3.5 0.75 -2.390625 Z M 0.75 -2.390625 "/>
</g>
<g id="glyph-4-1">
<path d="M 0.53125 0 L 3.75 0 L 3.75 -0.5625 L 1.421875 -0.5625 L 1.421875 -0.609375 L 2.53125 -1.796875 C 3.421875 -2.75 3.671875 -3.171875 3.671875 -3.71875 C 3.671875 -4.515625 3.03125 -5.140625 2.125 -5.140625 C 1.21875 -5.140625 0.53125 -4.53125 0.53125 -3.640625 L 1.15625 -3.640625 C 1.15625 -4.203125 1.53125 -4.578125 2.109375 -4.578125 C 2.640625 -4.578125 3.0625 -4.25 3.0625 -3.71875 C 3.0625 -3.25 2.765625 -2.90625 2.203125 -2.296875 L 0.53125 -0.46875 Z M 0.53125 0 "/>
</g>
<g id="glyph-4-2">
<path d="M 2.203125 0.0625 C 3.234375 0.0625 3.90625 -0.6875 3.90625 -1.640625 C 3.90625 -2.625 3.1875 -3.3125 2.3125 -3.3125 C 1.796875 -3.3125 1.34375 -3.0625 1.0625 -2.640625 L 1.03125 -2.640625 C 1.03125 -3.859375 1.5 -4.578125 2.28125 -4.578125 C 2.8125 -4.578125 3.125 -4.234375 3.234375 -3.796875 L 3.875 -3.796875 C 3.75 -4.59375 3.125 -5.140625 2.28125 -5.140625 C 1.125 -5.140625 0.421875 -4.125 0.421875 -2.34375 C 0.421875 -0.46875 1.359375 0.0625 2.203125 0.0625 Z M 2.203125 -0.5 C 1.578125 -0.5 1.125 -1.03125 1.125 -1.625 C 1.125 -2.21875 1.59375 -2.75 2.21875 -2.75 C 2.828125 -2.75 3.28125 -2.265625 3.28125 -1.640625 C 3.28125 -1 2.8125 -0.5 2.203125 -0.5 Z M 2.203125 -0.5 "/>
</g>
<g id="glyph-4-3">
<path d="M 0.53125 1.421875 L 1.15625 1.421875 L 1.15625 -0.59375 L 1.203125 -0.59375 C 1.328125 -0.375 1.578125 0.078125 2.3125 0.078125 C 3.25 0.078125 3.921875 -0.6875 3.921875 -1.890625 C 3.921875 -3.09375 3.25 -3.859375 2.296875 -3.859375 C 1.5625 -3.859375 1.328125 -3.40625 1.203125 -3.203125 L 1.125 -3.203125 L 1.125 -3.8125 L 0.53125 -3.8125 Z M 2.21875 -0.46875 C 1.515625 -0.46875 1.140625 -1.046875 1.140625 -1.90625 C 1.140625 -2.734375 1.515625 -3.3125 2.21875 -3.3125 C 2.9375 -3.3125 3.296875 -2.6875 3.296875 -1.90625 C 3.296875 -1.09375 2.921875 -0.46875 2.21875 -0.46875 Z M 2.21875 -0.46875 "/>
</g>
<g id="glyph-4-4">
<path d="M 2.140625 0.078125 C 2.921875 0.078125 3.484375 -0.3125 3.671875 -0.890625 L 3.078125 -1.046875 C 2.921875 -0.65625 2.59375 -0.46875 2.140625 -0.46875 C 1.46875 -0.46875 1 -0.90625 0.96875 -1.703125 L 3.71875 -1.703125 L 3.71875 -1.953125 C 3.71875 -3.359375 2.875 -3.859375 2.0625 -3.859375 C 1.03125 -3.859375 0.359375 -3.046875 0.359375 -1.875 C 0.359375 -0.703125 1.03125 0.078125 2.140625 0.078125 Z M 0.984375 -2.21875 C 1.015625 -2.796875 1.40625 -3.3125 2.0625 -3.3125 C 2.6875 -3.3125 3.046875 -2.859375 3.109375 -2.21875 Z M 0.984375 -2.21875 "/>
</g>
<g id="glyph-4-5">
<path d="M 1.15625 -2.28125 C 1.15625 -2.9375 1.5625 -3.296875 2.109375 -3.296875 C 2.640625 -3.296875 2.96875 -2.953125 2.96875 -2.375 L 2.96875 0 L 3.578125 0 L 3.578125 -2.421875 C 3.578125 -3.375 3.0625 -3.859375 2.296875 -3.859375 C 1.78125 -3.859375 1.375 -3.640625 1.125 -3.109375 L 1.125 -3.8125 L 0.53125 -3.8125 L 0.53125 0 L 1.15625 0 Z M 1.15625 -2.28125 "/>
</g>
<g id="glyph-4-6">
<path d="M 2.078125 1.5 C 3 1.5 3.734375 1.078125 3.734375 0.09375 L 3.734375 -3.8125 L 3.140625 -3.8125 L 3.140625 -3.203125 L 3.09375 -3.203125 C 2.953125 -3.40625 2.71875 -3.859375 1.96875 -3.859375 C 1.03125 -3.859375 0.359375 -3.09375 0.359375 -1.921875 C 0.359375 -0.71875 1.046875 -0.0625 1.96875 -0.0625 C 2.703125 -0.0625 2.9375 -0.484375 3.0625 -0.703125 L 3.125 -0.703125 L 3.125 0.0625 C 3.125 0.6875 2.6875 0.96875 2.078125 0.96875 C 1.40625 0.96875 1.171875 0.625 1.015625 0.40625 L 0.515625 0.734375 C 0.75 1.140625 1.234375 1.5 2.078125 1.5 Z M 2.0625 -0.609375 C 1.34375 -0.609375 0.984375 -1.15625 0.984375 -1.9375 C 0.984375 -2.6875 1.34375 -3.3125 2.0625 -3.3125 C 2.765625 -3.3125 3.140625 -2.734375 3.140625 -1.9375 C 3.140625 -1.109375 2.75 -0.609375 2.0625 -0.609375 Z M 2.0625 -0.609375 "/>
</g>
<g id="glyph-4-7">
<path d="M 1.828125 0.046875 C 2.328125 0.046875 2.75 -0.15625 3 -0.71875 L 3 0 L 3.59375 0 L 3.59375 -3.8125 L 2.96875 -3.8125 L 2.96875 -1.53125 C 2.96875 -0.875 2.5625 -0.5 2.015625 -0.5 C 1.484375 -0.5 1.15625 -0.859375 1.15625 -1.4375 L 1.15625 -3.8125 L 0.53125 -3.8125 L 0.53125 -1.390625 C 0.53125 -0.421875 1.0625 0.046875 1.828125 0.046875 Z M 1.828125 0.046875 "/>
</g>
<g id="glyph-4-8">
<path d="M 0.53125 0 L 1.15625 0 L 1.15625 -3.8125 L 0.53125 -3.8125 Z M 0.84375 -4.4375 C 1.078125 -4.4375 1.28125 -4.609375 1.28125 -4.84375 C 1.28125 -5.0625 1.078125 -5.25 0.84375 -5.25 C 0.609375 -5.25 0.421875 -5.0625 0.421875 -4.84375 C 0.421875 -4.609375 0.609375 -4.4375 0.84375 -4.4375 Z M 0.84375 -4.4375 "/>
</g>
<g id="glyph-4-9">
<path d="M 1.828125 0.078125 C 2.71875 0.078125 3.328125 -0.40625 3.328125 -1.078125 C 3.328125 -1.59375 3.015625 -1.9375 2.3125 -2.109375 L 1.75 -2.234375 C 1.296875 -2.34375 1.109375 -2.5 1.109375 -2.78125 C 1.109375 -3.09375 1.4375 -3.328125 1.890625 -3.328125 C 2.390625 -3.328125 2.609375 -3.0625 2.703125 -2.796875 L 3.265625 -2.9375 C 3.09375 -3.46875 2.671875 -3.859375 1.890625 -3.859375 C 1.078125 -3.859375 0.484375 -3.40625 0.484375 -2.75 C 0.484375 -2.203125 0.8125 -1.875 1.5 -1.703125 L 2.140625 -1.5625 C 2.515625 -1.46875 2.703125 -1.296875 2.703125 -1.03125 C 2.703125 -0.71875 2.359375 -0.453125 1.828125 -0.453125 C 1.375 -0.453125 1.0625 -0.640625 0.953125 -1.0625 L 0.375 -0.921875 C 0.5 -0.265625 1.046875 0.078125 1.828125 0.078125 Z M 1.828125 0.078125 "/>
</g>
<g id="glyph-4-10">
<path d="M 0.328125 0.953125 L 0.921875 0.953125 C 1.484375 -0.015625 1.796875 -1.0625 1.796875 -2.0625 C 1.796875 -3.171875 1.4375 -4.546875 0.921875 -5.390625 L 0.328125 -5.390625 C 0.859375 -4.3125 1.171875 -3.0625 1.171875 -2.0625 C 1.171875 -1.1875 0.9375 -0.296875 0.328125 0.953125 Z M 0.328125 0.953125 "/>
</g>
<g id="glyph-4-11">
<path d="M 0.6875 0 L 1.359375 0 L 3.609375 -4.46875 L 3.609375 -5.078125 L 0.328125 -5.078125 L 0.328125 -4.5 L 2.9375 -4.5 L 2.9375 -4.46875 Z M 0.6875 0 "/>
</g>
<g id="glyph-4-12">
<path d="M 0.328125 0.625 L 0.921875 0.625 C 1.484375 -0.34375 1.796875 -1.375 1.796875 -2.390625 C 1.796875 -3.484375 1.4375 -4.875 0.921875 -5.703125 L 0.328125 -5.703125 C 0.859375 -4.625 1.171875 -3.375 1.171875 -2.390625 C 1.171875 -1.515625 0.9375 -0.609375 0.328125 0.625 Z M 0.328125 0.625 "/>
</g>
<g id="glyph-4-13">
<path d="M 1.609375 0.09375 C 2.25 0.09375 2.609375 -0.25 2.734375 -0.515625 L 2.78125 -0.515625 L 2.78125 0 L 3.375 0 L 3.375 -2.515625 C 3.375 -3.703125 2.46875 -3.859375 1.953125 -3.859375 C 1.359375 -3.859375 0.703125 -3.640625 0.421875 -2.953125 L 1 -2.765625 C 1.125 -3.03125 1.421875 -3.3125 1.96875 -3.3125 C 2.5 -3.3125 2.765625 -3.046875 2.765625 -2.578125 L 2.765625 -2.546875 C 2.765625 -2.265625 2.46875 -2.28125 1.78125 -2.203125 C 1.078125 -2.109375 0.3125 -1.953125 0.3125 -1.078125 C 0.3125 -0.328125 0.875 0.09375 1.609375 0.09375 Z M 1.703125 -0.453125 C 1.25 -0.453125 0.921875 -0.65625 0.921875 -1.046875 C 0.921875 -1.484375 1.3125 -1.625 1.765625 -1.6875 C 2 -1.71875 2.65625 -1.78125 2.765625 -1.90625 L 2.765625 -1.375 C 2.765625 -0.90625 2.390625 -0.453125 1.703125 -0.453125 Z M 1.703125 -0.453125 "/>
</g>
<g id="glyph-4-14">
<path d="M 1.96875 0.078125 C 2.6875 0.078125 2.953125 -0.375 3.078125 -0.59375 L 3.140625 -0.59375 L 3.140625 0 L 3.734375 0 L 3.734375 -5.078125 L 3.125 -5.078125 L 3.125 -3.203125 L 3.078125 -3.203125 C 2.953125 -3.40625 2.71875 -3.859375 1.96875 -3.859375 C 1.015625 -3.859375 0.359375 -3.09375 0.359375 -1.890625 C 0.359375 -0.6875 1.015625 0.078125 1.96875 0.078125 Z M 2.0625 -0.46875 C 1.34375 -0.46875 0.984375 -1.09375 0.984375 -1.90625 C 0.984375 -2.6875 1.328125 -3.3125 2.0625 -3.3125 C 2.765625 -3.3125 3.125 -2.734375 3.125 -1.90625 C 3.125 -1.046875 2.75 -0.46875 2.0625 -0.46875 Z M 2.0625 -0.46875 "/>
</g>
<g id="glyph-4-15">
<path d="M 1.15625 -5.078125 L 0.53125 -5.078125 L 0.53125 0 L 1.15625 0 Z M 1.15625 -5.078125 "/>
</g>
<g id="glyph-4-16">
<path d="M 0.53125 0 L 1.15625 0 L 1.15625 -2.390625 C 1.15625 -2.90625 1.546875 -3.265625 2.109375 -3.265625 C 2.265625 -3.265625 2.4375 -3.25 2.46875 -3.234375 L 2.46875 -3.859375 C 2.390625 -3.859375 2.25 -3.859375 2.15625 -3.859375 C 1.703125 -3.859375 1.3125 -3.609375 1.171875 -3.21875 L 1.125 -3.21875 L 1.125 -3.8125 L 0.53125 -3.8125 Z M 0.53125 0 "/>
</g>
<g id="glyph-4-17">
<path d="M 2.3125 -3.8125 L 1.4375 -3.8125 L 1.4375 -4.171875 C 1.4375 -4.546875 1.59375 -4.75 1.96875 -4.75 C 2.140625 -4.75 2.234375 -4.703125 2.296875 -4.6875 L 2.46875 -5.21875 C 2.375 -5.25 2.1875 -5.3125 1.90625 -5.3125 C 1.34375 -5.3125 0.8125 -4.984375 0.8125 -4.3125 L 0.8125 -3.8125 L 0.0625 -3.8125 L 0.0625 -3.28125 L 0.8125 -3.28125 L 0.8125 0 L 1.4375 0 L 1.4375 -3.28125 L 2.3125 -3.28125 Z M 2.3125 -3.8125 "/>
</g>
<g id="glyph-4-18">
<path d="M 2.09375 0.078125 C 3.125 0.078125 3.828125 -0.703125 3.828125 -1.875 C 3.828125 -3.078125 3.125 -3.859375 2.09375 -3.859375 C 1.046875 -3.859375 0.359375 -3.078125 0.359375 -1.875 C 0.359375 -0.703125 1.046875 0.078125 2.09375 0.078125 Z M 2.09375 -0.46875 C 1.328125 -0.46875 0.984375 -1.125 0.984375 -1.875 C 0.984375 -2.640625 1.328125 -3.3125 2.09375 -3.3125 C 2.859375 -3.3125 3.203125 -2.640625 3.203125 -1.875 C 3.203125 -1.125 2.859375 -0.46875 2.09375 -0.46875 Z M 2.09375 -0.46875 "/>
</g>
<g id="glyph-4-19">
<path d="M 0.53125 0 L 1.15625 0 L 1.15625 -2.390625 C 1.15625 -3 1.5625 -3.3125 2 -3.3125 C 2.4375 -3.3125 2.75 -3.03125 2.75 -2.609375 L 2.75 0 L 3.359375 0 L 3.359375 -2.484375 C 3.359375 -2.96875 3.671875 -3.3125 4.1875 -3.3125 C 4.59375 -3.3125 4.953125 -3.09375 4.953125 -2.546875 L 4.953125 0 L 5.578125 0 L 5.578125 -2.5625 C 5.578125 -3.453125 5.03125 -3.875 4.375 -3.875 C 3.828125 -3.875 3.359375 -3.578125 3.171875 -3.09375 C 3.03125 -3.5625 2.703125 -3.875 2.203125 -3.875 C 1.75 -3.875 1.328125 -3.625 1.140625 -3.109375 L 1.140625 -3.8125 L 0.53125 -3.8125 Z M 0.53125 0 "/>
</g>
<g id="glyph-4-20">
<path d="M 2.03125 -3.8125 L 1.25 -3.8125 L 1.25 -4.71875 L 0.640625 -4.71875 L 0.640625 -3.8125 L 0.0625 -3.8125 L 0.0625 -3.28125 L 0.640625 -3.28125 L 0.640625 -0.9375 C 0.640625 -0.3125 1.03125 0.046875 1.6875 0.046875 C 1.84375 0.046875 2.015625 0.03125 2.140625 -0.015625 L 2.015625 -0.53125 C 1.921875 -0.515625 1.78125 -0.5 1.703125 -0.5 C 1.375 -0.5 1.25 -0.640625 1.25 -0.984375 L 1.25 -3.28125 L 2.03125 -3.28125 Z M 2.03125 -3.8125 "/>
</g>
<g id="glyph-4-21">
<path d="M 1.15625 -2.28125 C 1.15625 -2.9375 1.5625 -3.296875 2.109375 -3.296875 C 2.640625 -3.296875 2.96875 -2.953125 2.96875 -2.375 L 2.96875 0 L 3.59375 0 L 3.59375 -2.421875 C 3.59375 -3.375 3.0625 -3.859375 2.296875 -3.859375 C 1.796875 -3.859375 1.40625 -3.65625 1.15625 -3.140625 L 1.15625 -5.078125 L 0.53125 -5.078125 L 0.53125 0 L 1.15625 0 Z M 1.15625 -2.28125 "/>
</g>
<g id="glyph-4-22">
<path d="M 1.390625 0 L 2 0 L 2.5 -1.71875 C 2.625 -2.15625 2.734375 -2.625 2.859375 -3.109375 C 2.96875 -2.625 3.09375 -2.15625 3.21875 -1.71875 L 3.703125 0 L 4.3125 0 L 5.46875 -3.8125 L 4.8125 -3.8125 L 4.359375 -2.140625 C 4.234375 -1.734375 4.109375 -1.25 3.984375 -0.671875 C 3.875 -1.25 3.75 -1.734375 3.640625 -2.140625 L 3.1875 -3.8125 L 2.53125 -3.8125 L 2.078125 -2.140625 C 1.96875 -1.71875 1.84375 -1.234375 1.71875 -0.65625 C 1.59375 -1.265625 1.46875 -1.75 1.359375 -2.140625 L 0.890625 -3.8125 L 0.234375 -3.8125 Z M 1.390625 0 "/>
</g>
<g id="glyph-4-23">
<path d="M 2.09375 0.078125 C 2.828125 0.078125 3.4375 -0.328125 3.640625 -1 L 3.0625 -1.171875 C 2.953125 -0.75 2.59375 -0.46875 2.09375 -0.46875 C 1.328125 -0.46875 0.984375 -1.125 0.984375 -1.875 C 0.984375 -2.640625 1.328125 -3.3125 2.09375 -3.3125 C 2.59375 -3.3125 2.921875 -3.03125 3.046875 -2.640625 L 3.625 -2.796875 C 3.421875 -3.46875 2.828125 -3.859375 2.09375 -3.859375 C 1.046875 -3.859375 0.359375 -3.078125 0.359375 -1.875 C 0.359375 -0.703125 1.046875 0.078125 2.09375 0.078125 Z M 2.09375 0.078125 "/>
</g>
<g id="glyph-5-0">
<path d="M 0.96875 -4.03125 L 1.875 -4.03125 L 2.671875 -6.515625 L 2.0625 -6.515625 Z M 2.578125 -4.03125 L 3.484375 -4.03125 L 4.28125 -6.515625 L 3.671875 -6.515625 Z M 2.578125 -4.03125 "/>
</g>
<g id="glyph-5-1">
<path d="M 2.21875 0 L 3.046875 0 L 3.484375 -2.671875 L 6.53125 -6.515625 L 5.515625 -6.515625 L 3.875 -4.421875 C 3.609375 -4.0625 3.375 -3.765625 3.125 -3.34375 C 3.015625 -3.765625 2.90625 -4.0625 2.75 -4.421875 L 1.796875 -6.515625 L 0.90625 -6.515625 L 2.65625 -2.671875 Z M 2.21875 0 "/>
</g>
<g id="glyph-5-2">
<path d="M 2.3125 0.109375 C 3.9375 0.109375 4.953125 -1.375 4.953125 -2.953125 C 4.953125 -4.171875 4.234375 -4.953125 3.046875 -4.953125 C 1.40625 -4.953125 0.40625 -3.453125 0.40625 -1.890625 C 0.40625 -0.6875 1.125 0.109375 2.3125 0.109375 Z M 2.328125 -0.59375 C 1.53125 -0.59375 1.203125 -1.171875 1.203125 -1.90625 C 1.203125 -2.984375 1.84375 -4.25 3.03125 -4.25 C 3.828125 -4.25 4.171875 -3.671875 4.171875 -2.9375 C 4.171875 -1.859375 3.53125 -0.59375 2.328125 -0.59375 Z M 2.328125 -0.59375 "/>
</g>
<g id="glyph-5-3">
<path d="M 1.9375 0.0625 C 2.578125 0.0625 3.15625 -0.203125 3.59375 -0.921875 L 3.4375 0 L 4.203125 0 L 5.015625 -4.890625 L 4.21875 -4.890625 L 3.734375 -1.953125 C 3.59375 -1.109375 2.96875 -0.640625 2.28125 -0.640625 C 1.59375 -0.640625 1.265625 -1.109375 1.390625 -1.84375 L 1.890625 -4.890625 L 1.09375 -4.890625 L 0.59375 -1.78125 C 0.375 -0.53125 0.953125 0.0625 1.9375 0.0625 Z M 1.9375 0.0625 "/>
</g>
<g id="glyph-5-4">
<path d="M 2.15625 0.109375 C 3.0625 0.109375 3.46875 -0.453125 3.671875 -0.75 L 3.765625 -0.75 L 3.625 0 L 4.390625 0 L 5.46875 -6.515625 L 4.6875 -6.515625 L 4.28125 -4.09375 L 4.21875 -4.09375 C 4.09375 -4.359375 3.875 -4.953125 2.90625 -4.953125 C 1.34375 -4.953125 0.40625 -3.40625 0.40625 -1.859375 C 0.40625 -0.640625 1.078125 0.109375 2.15625 0.109375 Z M 2.296875 -0.59375 C 1.546875 -0.59375 1.203125 -1.140625 1.203125 -1.90625 C 1.203125 -3.015625 1.828125 -4.25 3 -4.25 C 3.71875 -4.25 4.078125 -3.765625 4.078125 -3 C 4.078125 -1.890625 3.46875 -0.59375 2.296875 -0.59375 Z M 2.296875 -0.59375 "/>
</g>
<g id="glyph-5-5">
<path d="M 1.5625 -2.90625 C 1.703125 -3.734375 2.328125 -4.25 3.046875 -4.25 C 3.703125 -4.25 4.046875 -3.828125 3.921875 -3.0625 L 3.40625 0 L 4.203125 0 L 4.71875 -3.078125 C 4.921875 -4.3125 4.328125 -4.953125 3.3125 -4.953125 C 2.671875 -4.953125 2.140625 -4.6875 1.71875 -4.03125 L 1.859375 -4.890625 L 1.09375 -4.890625 L 0.28125 0 L 1.078125 0 Z M 1.5625 -2.90625 "/>
</g>
<g id="glyph-5-6">
<path d="M 0.96875 -4.03125 L 1.578125 -4.03125 L 2.671875 -6.515625 L 1.765625 -6.515625 Z M 0.96875 -4.03125 "/>
</g>
<g id="glyph-5-7">
<path d="M 3.015625 -4.890625 L 2.015625 -4.890625 L 2.21875 -6.0625 L 1.421875 -6.0625 L 1.234375 -4.890625 L 0.5 -4.890625 L 0.390625 -4.21875 L 1.125 -4.21875 L 0.625 -1.203125 C 0.484375 -0.421875 0.90625 0.0625 1.765625 0.0625 C 1.96875 0.0625 2.203125 0.03125 2.359375 -0.03125 L 2.3125 -0.6875 C 2.171875 -0.671875 2 -0.640625 1.890625 -0.640625 C 1.484375 -0.640625 1.34375 -0.8125 1.421875 -1.265625 L 1.90625 -4.21875 L 2.90625 -4.21875 Z M 3.015625 -4.890625 "/>
</g>
<g id="glyph-5-8">
<path d="M 2 1.9375 C 3.171875 1.9375 4.15625 1.40625 4.375 0.15625 L 5.203125 -4.890625 L 4.4375 -4.890625 L 4.3125 -4.109375 L 4.21875 -4.09375 C 4.109375 -4.34375 3.875 -4.953125 2.90625 -4.953125 C 1.359375 -4.953125 0.421875 -3.4375 0.421875 -1.9375 C 0.421875 -0.75 1.140625 -0.078125 2.171875 -0.078125 C 3.09375 -0.078125 3.46875 -0.59375 3.6875 -0.875 L 3.765625 -0.890625 L 3.59375 0.0625 C 3.46875 0.859375 2.8125 1.25 2.015625 1.25 C 1.15625 1.25 0.9375 0.8125 0.78125 0.546875 L 0.109375 0.921875 C 0.3125 1.4375 0.859375 1.9375 2 1.9375 Z M 2.328125 -0.78125 C 1.578125 -0.78125 1.21875 -1.25 1.21875 -1.984375 C 1.21875 -3.078125 1.859375 -4.25 3 -4.25 C 3.734375 -4.25 4.078125 -3.765625 4.078125 -3.015625 C 4.078125 -1.953125 3.515625 -0.78125 2.328125 -0.78125 Z M 2.328125 -0.78125 "/>
</g>
<g id="glyph-5-9">
<path d="M 0.28125 0 L 1.078125 0 L 1.578125 -3.0625 C 1.6875 -3.71875 2.28125 -4.203125 3 -4.203125 C 3.1875 -4.203125 3.390625 -4.171875 3.453125 -4.15625 L 3.59375 -4.953125 C 3.5 -4.953125 3.3125 -4.96875 3.1875 -4.96875 C 2.609375 -4.96875 2.046875 -4.640625 1.796875 -4.140625 L 1.734375 -4.140625 L 1.859375 -4.890625 L 1.09375 -4.890625 Z M 0.28125 0 "/>
</g>
<g id="glyph-5-10">
<path d="M 2.109375 0.109375 C 3.03125 0.109375 3.453125 -0.46875 3.671875 -0.75 L 3.765625 -0.75 L 3.640625 0 L 4.40625 0 L 5.203125 -4.890625 L 4.421875 -4.890625 L 4.296875 -4.109375 L 4.21875 -4.109375 C 4.109375 -4.375 3.890625 -4.953125 2.953125 -4.953125 C 1.734375 -4.953125 0.71875 -3.984375 0.453125 -2.4375 C 0.203125 -0.890625 0.890625 0.109375 2.109375 0.109375 Z M 2.34375 -0.59375 C 1.421875 -0.59375 1.078125 -1.421875 1.25 -2.453125 C 1.421875 -3.453125 2.015625 -4.25 2.953125 -4.25 C 3.84375 -4.25 4.203125 -3.53125 4.03125 -2.453125 C 3.84375 -1.359375 3.234375 -0.59375 2.34375 -0.59375 Z M 2.34375 -0.59375 "/>
</g>
<g id="glyph-5-11">
<path d="M 2.34375 0.109375 C 3.3125 0.109375 4.140625 -0.375 4.5 -1.140625 L 3.78125 -1.34375 C 3.53125 -0.875 3.015625 -0.59375 2.390625 -0.59375 C 1.484375 -0.59375 1.171875 -1.15625 1.171875 -1.875 C 1.171875 -1.953125 1.171875 -2.046875 1.1875 -2.125 C 3.59375 -2.15625 4.640625 -2.59375 4.640625 -3.65625 C 4.640625 -4.46875 4.03125 -5 3.078125 -5 C 1.59375 -5 0.40625 -3.578125 0.40625 -1.875 C 0.40625 -0.625 1.140625 0.109375 2.34375 0.109375 Z M 1.28125 -2.71875 C 1.5 -3.515625 2.03125 -4.296875 3 -4.296875 C 3.515625 -4.296875 3.84375 -4.046875 3.84375 -3.671875 C 3.84375 -2.96875 3.234375 -2.75 1.28125 -2.71875 Z M 1.28125 -2.71875 "/>
</g>
<g id="glyph-5-12">
<path d="M 1.96875 0.109375 C 3.09375 0.109375 3.953125 -0.5 4.09375 -1.328125 C 4.203125 -2.015625 3.84375 -2.484375 3 -2.6875 L 2.28125 -2.875 C 1.734375 -3 1.53125 -3.1875 1.59375 -3.515625 C 1.65625 -3.953125 2.171875 -4.28125 2.78125 -4.28125 C 3.390625 -4.28125 3.59375 -3.96875 3.671875 -3.625 L 4.390625 -3.75 C 4.390625 -3.8125 4.375 -3.875 4.359375 -3.9375 C 4.203125 -4.53125 3.734375 -4.953125 2.796875 -4.953125 C 1.78125 -4.953125 0.9375 -4.390625 0.8125 -3.578125 C 0.6875 -2.859375 1.0625 -2.40625 1.90625 -2.203125 L 2.6875 -2 C 3.15625 -1.890625 3.328125 -1.6875 3.28125 -1.375 C 3.21875 -0.953125 2.6875 -0.59375 1.984375 -0.59375 C 1.421875 -0.59375 1.078125 -0.796875 1.03125 -1.34375 L 0.265625 -1.21875 C 0.265625 -1.171875 0.265625 -1.140625 0.28125 -1.09375 C 0.359375 -0.328125 1 0.109375 1.96875 0.109375 Z M 1.96875 0.109375 "/>
</g>
<g id="glyph-5-13">
<path d="M 1.5625 -2.9375 C 1.703125 -3.78125 2.3125 -4.25 3 -4.25 C 3.6875 -4.25 4.046875 -3.796875 3.921875 -3.046875 L 3.40625 0 L 4.203125 0 L 4.71875 -3.109375 C 4.921875 -4.34375 4.3125 -4.953125 3.328125 -4.953125 C 2.703125 -4.953125 2.171875 -4.703125 1.734375 -4.046875 L 2.15625 -6.515625 L 1.359375 -6.515625 L 0.28125 0 L 1.078125 0 Z M 1.5625 -2.9375 "/>
</g>
<g id="glyph-5-14">
<path d="M -0.125 0 L 0.8125 0 L 1.71875 -1.09375 C 1.984375 -1.4375 2.1875 -1.734375 2.390625 -2 C 2.5 -1.734375 2.609375 -1.4375 2.765625 -1.09375 L 3.3125 0 L 4.203125 0 L 2.890625 -2.46875 L 4.9375 -4.890625 L 4 -4.890625 L 3.21875 -3.9375 C 2.9375 -3.59375 2.734375 -3.28125 2.53125 -3 C 2.40625 -3.28125 2.296875 -3.59375 2.125 -3.9375 L 1.671875 -4.890625 L 0.78125 -4.890625 L 2.015625 -2.5 Z M -0.125 0 "/>
</g>
<g id="glyph-5-15">
<path d="M 2.3125 0.109375 C 3.265625 0.109375 4.09375 -0.40625 4.5 -1.265625 L 3.765625 -1.515625 C 3.546875 -1 3 -0.59375 2.328125 -0.59375 C 1.53125 -0.59375 1.203125 -1.171875 1.203125 -1.90625 C 1.203125 -2.984375 1.84375 -4.25 3.03125 -4.25 C 3.65625 -4.25 4.015625 -3.90625 4.078125 -3.40625 L 4.84375 -3.578125 C 4.71875 -4.421875 4.015625 -4.953125 3.046875 -4.953125 C 1.40625 -4.953125 0.40625 -3.4375 0.40625 -1.890625 C 0.40625 -0.6875 1.125 0.109375 2.3125 0.109375 Z M 2.3125 0.109375 "/>
</g>
<g id="glyph-5-16">
<path d="M 4.09375 1.828125 L 5.203125 -4.890625 L 4.4375 -4.890625 L 4.296875 -4.0625 L 4.25 -4.0625 C 4.125 -4.34375 3.875 -4.953125 2.90625 -4.953125 C 1.34375 -4.953125 0.40625 -3.40625 0.40625 -1.859375 C 0.40625 -0.640625 1.078125 0.109375 2.15625 0.109375 C 3.046875 0.109375 3.4375 -0.421875 3.65625 -0.75 L 3.734375 -0.75 L 3.296875 1.828125 Z M 2.296875 -0.59375 C 1.546875 -0.59375 1.203125 -1.140625 1.203125 -1.90625 C 1.203125 -3.015625 1.828125 -4.25 3 -4.25 C 3.71875 -4.25 4.078125 -3.765625 4.078125 -3 C 4.078125 -1.890625 3.46875 -0.59375 2.296875 -0.59375 Z M 2.296875 -0.59375 "/>
</g>
<g id="glyph-5-17">
<path d="M 0.28125 0 L 1.078125 0 L 1.890625 -4.890625 L 1.09375 -4.890625 Z M 1.625 -5.6875 C 1.921875 -5.6875 2.21875 -5.921875 2.265625 -6.21875 C 2.3125 -6.515625 2.09375 -6.734375 1.796875 -6.734375 C 1.484375 -6.734375 1.21875 -6.5 1.171875 -6.21875 C 1.125 -5.9375 1.328125 -5.6875 1.625 -5.6875 Z M 1.625 -5.6875 "/>
</g>
<g id="glyph-5-18">
<path d="M -0.078125 1.765625 C 0 1.8125 0.21875 1.859375 0.46875 1.859375 C 1.171875 1.859375 1.703125 1.5 2.125 0.734375 L 5.203125 -4.890625 L 4.3125 -4.890625 L 2.78125 -1.984375 C 2.5625 -1.5625 2.375 -1.140625 2.203125 -0.734375 C 2.15625 -1.140625 2.109375 -1.5625 2.03125 -1.984375 L 1.46875 -4.890625 L 0.640625 -4.890625 L 1.703125 0.03125 L 1.484375 0.4375 C 1.140625 1.125 0.78125 1.21875 0.3125 1.109375 L 0.234375 1.09375 Z M -0.078125 1.765625 "/>
</g>
<g id="glyph-5-19">
<path d="M 0.921875 0.0625 C 1.234375 0.0625 1.5 -0.1875 1.546875 -0.5 C 1.59375 -0.828125 1.375 -1.125 1.015625 -1.125 C 0.71875 -1.125 0.4375 -0.890625 0.390625 -0.59375 C 0.328125 -0.234375 0.578125 0.0625 0.921875 0.0625 Z M 0.921875 0.0625 "/>
</g>
<g id="glyph-5-20">
<path d="M 0.96875 -4.03125 L 1.578125 -4.03125 L 2.671875 -6.515625 L 1.765625 -6.515625 Z M 2.578125 -4.03125 L 3.1875 -4.03125 L 4.28125 -6.515625 L 3.375 -6.515625 Z M 2.578125 -4.03125 "/>
</g>
</g>
<clipPath id="clip-0">
<path clip-rule="nonzero" d="M 55 165 L 368 165 L 368 208.667969 L 55 208.667969 Z M 55 165 "/>
</clipPath>
</defs>
<g fill="rgb(10.586548%, 16.471863%, 29.019165%)" fill-opacity="1">
<use xlink:href="#glyph-0-0" x="164.974472" y="18.311976"/>
<use xlink:href="#glyph-0-1" x="169.199979" y="18.311976"/>
</g>
<g fill="rgb(10.586548%, 16.471863%, 29.019165%)" fill-opacity="1">
<use xlink:href="#glyph-0-2" x="184.080765" y="18.311976"/>
<use xlink:href="#glyph-0-2" x="188.306272" y="18.311976"/>
<use xlink:href="#glyph-0-2" x="192.531779" y="18.311976"/>
</g>
<g fill="rgb(10.586548%, 16.471863%, 29.019165%)" fill-opacity="1">
<use xlink:href="#glyph-0-3" x="207.420523" y="18.311976"/>
<use xlink:href="#glyph-0-3" x="211.646029" y="18.311976"/>
<use xlink:href="#glyph-0-3" x="215.871536" y="18.311976"/>
</g>
<g fill="rgb(10.586548%, 16.471863%, 29.019165%)" fill-opacity="1">
<use xlink:href="#glyph-0-4" x="224.32255" y="18.311976"/>
<use xlink:href="#glyph-0-5" x="228.548056" y="18.311976"/>
<use xlink:href="#glyph-0-6" x="232.773563" y="18.311976"/>
<use xlink:href="#glyph-0-7" x="236.99907" y="18.311976"/>
<use xlink:href="#glyph-0-8" x="241.224576" y="18.311976"/>
<use xlink:href="#glyph-0-9" x="245.450083" y="18.311976"/>
<use xlink:href="#glyph-0-6" x="249.67559" y="18.311976"/>
<use xlink:href="#glyph-0-10" x="253.901096" y="18.311976"/>
</g>
<path fill-rule="nonzero" fill="rgb(94.784546%, 95.196533%, 95.881653%)" fill-opacity="1" stroke-width="0.89664" stroke-linecap="butt" stroke-linejoin="miter" stroke="rgb(79.136658%, 80.784607%, 83.529663%)" stroke-opacity="1" stroke-miterlimit="10" d="M -192.473725 49.607736 L -173.764765 49.607736 L -173.764765 69.447371 L -192.473725 69.447371 Z M -192.473725 49.607736 " transform="matrix(0.998435, 0, 0, -0.998435, 211.551482, 97.409024)"/>
<path fill-rule="nonzero" fill="rgb(94.784546%, 95.196533%, 95.881653%)" fill-opacity="1" stroke-width="0.89664" stroke-linecap="butt" stroke-linejoin="miter" stroke="rgb(79.136658%, 80.784607%, 83.529663%)" stroke-opacity="1" stroke-miterlimit="10" d="M -173.197472 49.607736 L -154.488512 49.607736 L -154.488512 69.447371 L -173.197472 69.447371 Z M -173.197472 49.607736 " transform="matrix(0.998435, 0, 0, -0.998435, 211.551482, 97.409024)"/>
<path fill-rule="nonzero" fill="rgb(94.784546%, 95.196533%, 95.881653%)" fill-opacity="1" stroke-width="0.89664" stroke-linecap="butt" stroke-linejoin="miter" stroke="rgb(79.136658%, 80.784607%, 83.529663%)" stroke-opacity="1" stroke-miterlimit="10" d="M -153.921218 49.607736 L -135.212258 49.607736 L -135.212258 69.447371 L -153.921218 69.447371 Z M -153.921218 49.607736 " transform="matrix(0.998435, 0, 0, -0.998435, 211.551482, 97.409024)"/>
<path fill-rule="nonzero" fill="rgb(94.784546%, 95.196533%, 95.881653%)" fill-opacity="1" stroke-width="0.89664" stroke-linecap="butt" stroke-linejoin="miter" stroke="rgb(79.136658%, 80.784607%, 83.529663%)" stroke-opacity="1" stroke-miterlimit="10" d="M -134.644964 49.607736 L -115.936004 49.607736 L -115.936004 69.447371 L -134.644964 69.447371 Z M -134.644964 49.607736 " transform="matrix(0.998435, 0, 0, -0.998435, 211.551482, 97.409024)"/>
<path fill-rule="nonzero" fill="rgb(94.784546%, 95.196533%, 95.881653%)" fill-opacity="1" stroke-width="0.89664" stroke-linecap="butt" stroke-linejoin="miter" stroke="rgb(79.136658%, 80.784607%, 83.529663%)" stroke-opacity="1" stroke-miterlimit="10" d="M -115.372622 49.607736 L -96.663662 49.607736 L -96.663662 69.447371 L -115.372622 69.447371 Z M -115.372622 49.607736 " transform="matrix(0.998435, 0, 0, -0.998435, 211.551482, 97.409024)"/>
<path fill-rule="nonzero" fill="rgb(94.784546%, 95.196533%, 95.881653%)" fill-opacity="1" stroke-width="0.89664" stroke-linecap="butt" stroke-linejoin="miter" stroke="rgb(79.136658%, 80.784607%, 83.529663%)" stroke-opacity="1" stroke-miterlimit="10" d="M -96.096368 49.607736 L -77.387408 49.607736 L -77.387408 69.447371 L -96.096368 69.447371 Z M -96.096368 49.607736 " transform="matrix(0.998435, 0, 0, -0.998435, 211.551482, 97.409024)"/>
<path fill-rule="nonzero" fill="rgb(94.784546%, 95.196533%, 95.881653%)" fill-opacity="1" stroke-width="0.89664" stroke-linecap="butt" stroke-linejoin="miter" stroke="rgb(79.136658%, 80.784607%, 83.529663%)" stroke-opacity="1" stroke-miterlimit="10" d="M -76.820115 49.607736 L -58.111155 49.607736 L -58.111155 69.447371 L -76.820115 69.447371 Z M -76.820115 49.607736 " transform="matrix(0.998435, 0, 0, -0.998435, 211.551482, 97.409024)"/>
<path fill-rule="nonzero" fill="rgb(94.784546%, 95.196533%, 95.881653%)" fill-opacity="1" stroke-width="0.89664" stroke-linecap="butt" stroke-linejoin="miter" stroke="rgb(79.136658%, 80.784607%, 83.529663%)" stroke-opacity="1" stroke-miterlimit="10" d="M -57.543861 49.607736 L -38.834901 49.607736 L -38.834901 69.447371 L -57.543861 69.447371 Z M -57.543861 49.607736 " transform="matrix(0.998435, 0, 0, -0.998435, 211.551482, 97.409024)"/>
<path fill-rule="nonzero" fill="rgb(94.784546%, 95.196533%, 95.881653%)" fill-opacity="1" stroke-width="0.89664" stroke-linecap="butt" stroke-linejoin="miter" stroke="rgb(79.136658%, 80.784607%, 83.529663%)" stroke-opacity="1" stroke-miterlimit="10" d="M -38.267607 49.607736 L -19.562559 49.607736 L -19.562559 69.447371 L -38.267607 69.447371 Z M -38.267607 49.607736 " transform="matrix(0.998435, 0, 0, -0.998435, 211.551482, 97.409024)"/>
<path fill-rule="nonzero" fill="rgb(94.784546%, 95.196533%, 95.881653%)" fill-opacity="1" stroke-width="0.89664" stroke-linecap="butt" stroke-linejoin="miter" stroke="rgb(79.136658%, 80.784607%, 83.529663%)" stroke-opacity="1" stroke-miterlimit="10" d="M -18.995265 49.607736 L -0.286305 49.607736 L -0.286305 69.447371 L -18.995265 69.447371 Z M -18.995265 49.607736 " transform="matrix(0.998435, 0, 0, -0.998435, 211.551482, 97.409024)"/>
<path fill-rule="nonzero" fill="rgb(94.784546%, 95.196533%, 95.881653%)" fill-opacity="1" stroke-width="0.89664" stroke-linecap="butt" stroke-linejoin="miter" stroke="rgb(79.136658%, 80.784607%, 83.529663%)" stroke-opacity="1" stroke-miterlimit="10" d="M 0.280989 49.607736 L 18.989949 49.607736 L 18.989949 69.447371 L 0.280989 69.447371 Z M 0.280989 49.607736 " transform="matrix(0.998435, 0, 0, -0.998435, 211.551482, 97.409024)"/>
<path fill-rule="nonzero" fill="rgb(94.784546%, 95.196533%, 95.881653%)" fill-opacity="1" stroke-width="0.89664" stroke-linecap="butt" stroke-linejoin="miter" stroke="rgb(79.136658%, 80.784607%, 83.529663%)" stroke-opacity="1" stroke-miterlimit="10" d="M 19.557242 49.607736 L 38.266202 49.607736 L 38.266202 69.447371 L 19.557242 69.447371 Z M 19.557242 49.607736 " transform="matrix(0.998435, 0, 0, -0.998435, 211.551482, 97.409024)"/>
<path fill-rule="nonzero" fill="rgb(94.784546%, 95.196533%, 95.881653%)" fill-opacity="1" stroke-width="0.89664" stroke-linecap="butt" stroke-linejoin="miter" stroke="rgb(79.136658%, 80.784607%, 83.529663%)" stroke-opacity="1" stroke-miterlimit="10" d="M 38.833496 49.607736 L 57.542456 49.607736 L 57.542456 69.447371 L 38.833496 69.447371 Z M 38.833496 49.607736 " transform="matrix(0.998435, 0, 0, -0.998435, 211.551482, 97.409024)"/>
<path fill-rule="nonzero" fill="rgb(94.784546%, 95.196533%, 95.881653%)" fill-opacity="1" stroke-width="0.89664" stroke-linecap="butt" stroke-linejoin="miter" stroke="rgb(79.136658%, 80.784607%, 83.529663%)" stroke-opacity="1" stroke-miterlimit="10" d="M 58.105838 49.607736 L 76.814798 49.607736 L 76.814798 69.447371 L 58.105838 69.447371 Z M 58.105838 49.607736 " transform="matrix(0.998435, 0, 0, -0.998435, 211.551482, 97.409024)"/>
<path fill-rule="nonzero" fill="rgb(94.784546%, 95.196533%, 95.881653%)" fill-opacity="1" stroke-width="0.89664" stroke-linecap="butt" stroke-linejoin="miter" stroke="rgb(79.136658%, 80.784607%, 83.529663%)" stroke-opacity="1" stroke-miterlimit="10" d="M 77.382092 49.607736 L 96.091052 49.607736 L 96.091052 69.447371 L 77.382092 69.447371 Z M 77.382092 49.607736 " transform="matrix(0.998435, 0, 0, -0.998435, 211.551482, 97.409024)"/>
<path fill-rule="nonzero" fill="rgb(94.784546%, 95.196533%, 95.881653%)" fill-opacity="1" stroke-width="0.89664" stroke-linecap="butt" stroke-linejoin="miter" stroke="rgb(79.136658%, 80.784607%, 83.529663%)" stroke-opacity="1" stroke-miterlimit="10" d="M 96.658346 49.607736 L 115.367306 49.607736 L 115.367306 69.447371 L 96.658346 69.447371 Z M 96.658346 49.607736 " transform="matrix(0.998435, 0, 0, -0.998435, 211.551482, 97.409024)"/>
<path fill-rule="nonzero" fill="rgb(94.784546%, 95.196533%, 95.881653%)" fill-opacity="1" stroke-width="0.89664" stroke-linecap="butt" stroke-linejoin="miter" stroke="rgb(79.136658%, 80.784607%, 83.529663%)" stroke-opacity="1" stroke-miterlimit="10" d="M 115.934599 49.607736 L 134.643559 49.607736 L 134.643559 69.447371 L 115.934599 69.447371 Z M 115.934599 49.607736 " transform="matrix(0.998435, 0, 0, -0.998435, 211.551482, 97.409024)"/>
<path fill-rule="nonzero" fill="rgb(94.784546%, 95.196533%, 95.881653%)" fill-opacity="1" stroke-width="0.89664" stroke-linecap="butt" stroke-linejoin="miter" stroke="rgb(79.136658%, 80.784607%, 83.529663%)" stroke-opacity="1" stroke-miterlimit="10" d="M 135.206941 49.607736 L 153.915901 49.607736 L 153.915901 69.447371 L 135.206941 69.447371 Z M 135.206941 49.607736 " transform="matrix(0.998435, 0, 0, -0.998435, 211.551482, 97.409024)"/>
<path fill-rule="nonzero" fill="rgb(94.784546%, 95.196533%, 95.881653%)" fill-opacity="1" stroke-width="0.89664" stroke-linecap="butt" stroke-linejoin="miter" stroke="rgb(79.136658%, 80.784607%, 83.529663%)" stroke-opacity="1" stroke-miterlimit="10" d="M 154.483195 49.607736 L 173.192155 49.607736 L 173.192155 69.447371 L 154.483195 69.447371 Z M 154.483195 49.607736 " transform="matrix(0.998435, 0, 0, -0.998435, 211.551482, 97.409024)"/>
<path fill-rule="nonzero" fill="rgb(94.784546%, 95.196533%, 95.881653%)" fill-opacity="1" stroke-width="0.89664" stroke-linecap="butt" stroke-linejoin="miter" stroke="rgb(79.136658%, 80.784607%, 83.529663%)" stroke-opacity="1" stroke-miterlimit="10" d="M 173.759449 49.607736 L 192.468409 49.607736 L 192.468409 69.447371 L 173.759449 69.447371 Z M 173.759449 49.607736 " transform="matrix(0.998435, 0, 0, -0.998435, 211.551482, 97.409024)"/>
<path fill="none" stroke-width="0.99628" stroke-linecap="butt" stroke-linejoin="miter" stroke="rgb(10.586548%, 16.471863%, 29.019165%)" stroke-opacity="1" stroke-miterlimit="10" d="M -0.00070223 42.518519 L -0.00070223 30.836178 " transform="matrix(0.998435, 0, 0, -0.998435, 211.551482, 97.409024)"/>
<path fill-rule="nonzero" fill="rgb(10.586548%, 16.471863%, 29.019165%)" fill-opacity="1" stroke-width="0.99628" stroke-linecap="butt" stroke-linejoin="miter" stroke="rgb(10.586548%, 16.471863%, 29.019165%)" stroke-opacity="1" stroke-miterlimit="10" d="M 7.056532 -0.00070223 L 1.633986 2.006344 L 3.429764 -0.00070223 L 1.633986 -2.003836 Z M 7.056532 -0.00070223 " transform="matrix(0, 0.998435, 0.998435, 0, 211.551482, 63.446696)"/>
<g fill="rgb(18.03894%, 36.077881%, 65.879822%)" fill-opacity="1">
<use xlink:href="#glyph-1-0" x="225.220063" y="65.53697"/>
<use xlink:href="#glyph-1-1" x="229.920047" y="65.53697"/>
<use xlink:href="#glyph-1-2" x="234.620031" y="65.53697"/>
<use xlink:href="#glyph-1-3" x="239.320015" y="65.53697"/>
<use xlink:href="#glyph-1-4" x="244.02" y="65.53697"/>
<use xlink:href="#glyph-1-5" x="248.719984" y="65.53697"/>
<use xlink:href="#glyph-1-0" x="253.419968" y="65.53697"/>
<use xlink:href="#glyph-1-6" x="258.119952" y="65.53697"/>
<use xlink:href="#glyph-1-7" x="262.819937" y="65.53697"/>
<use xlink:href="#glyph-1-0" x="267.519921" y="65.53697"/>
<use xlink:href="#glyph-1-5" x="272.219905" y="65.53697"/>
<use xlink:href="#glyph-1-7" x="276.91989" y="65.53697"/>
<use xlink:href="#glyph-1-8" x="281.619874" y="65.53697"/>
<use xlink:href="#glyph-1-9" x="286.319858" y="65.53697"/>
<use xlink:href="#glyph-1-3" x="291.019842" y="65.53697"/>
<use xlink:href="#glyph-1-0" x="295.719827" y="65.53697"/>
<use xlink:href="#glyph-1-10" x="300.419811" y="65.53697"/>
<use xlink:href="#glyph-1-11" x="305.119795" y="65.53697"/>
<use xlink:href="#glyph-1-12" x="309.819779" y="65.53697"/>
</g>
<g fill="rgb(18.03894%, 36.077881%, 65.879822%)" fill-opacity="1">
<use xlink:href="#glyph-1-13" x="319.219748" y="65.53697"/>
<use xlink:href="#glyph-1-12" x="323.919732" y="65.53697"/>
</g>
<g fill="rgb(18.03894%, 36.077881%, 65.879822%)" fill-opacity="1">
<use xlink:href="#glyph-1-0" x="333.319701" y="65.53697"/>
<use xlink:href="#glyph-1-6" x="338.019685" y="65.53697"/>
<use xlink:href="#glyph-1-7" x="342.719669" y="65.53697"/>
<use xlink:href="#glyph-1-0" x="347.419653" y="65.53697"/>
<use xlink:href="#glyph-1-5" x="352.119638" y="65.53697"/>
<use xlink:href="#glyph-1-7" x="356.819622" y="65.53697"/>
<use xlink:href="#glyph-1-3" x="361.519606" y="65.53697"/>
<use xlink:href="#glyph-1-14" x="366.21959" y="65.53697"/>
<use xlink:href="#glyph-1-6" x="370.919575" y="65.53697"/>
<use xlink:href="#glyph-1-15" x="375.619559" y="65.53697"/>
<use xlink:href="#glyph-1-16" x="380.319543" y="65.53697"/>
<use xlink:href="#glyph-1-17" x="385.019527" y="65.53697"/>
<use xlink:href="#glyph-1-18" x="389.719512" y="65.53697"/>
<use xlink:href="#glyph-1-19" x="394.419496" y="65.53697"/>
</g>
<path fill-rule="nonzero" fill="rgb(90.162659%, 92.329407%, 95.904541%)" fill-opacity="1" stroke-width="0.89664" stroke-linecap="butt" stroke-linejoin="miter" stroke="rgb(18.03894%, 36.077881%, 65.879822%)" stroke-opacity="1" stroke-miterlimit="10" d="M -200.975309 -1.417412 L -182.266349 -1.417412 L -182.266349 18.426136 L -200.975309 18.426136 Z M -200.975309 -1.417412 " transform="matrix(0.998435, 0, 0, -0.998435, 211.551482, 97.409024)"/>
<path fill-rule="nonzero" fill="rgb(90.162659%, 92.329407%, 95.904541%)" fill-opacity="1" stroke-width="0.89664" stroke-linecap="butt" stroke-linejoin="miter" stroke="rgb(18.03894%, 36.077881%, 65.879822%)" stroke-opacity="1" stroke-miterlimit="10" d="M -181.699055 -1.417412 L -162.990095 -1.417412 L -162.990095 18.426136 L -181.699055 18.426136 Z M -181.699055 -1.417412 " transform="matrix(0.998435, 0, 0, -0.998435, 211.551482, 97.409024)"/>
<path fill-rule="nonzero" fill="rgb(90.162659%, 92.329407%, 95.904541%)" fill-opacity="1" stroke-width="0.89664" stroke-linecap="butt" stroke-linejoin="miter" stroke="rgb(18.03894%, 36.077881%, 65.879822%)" stroke-opacity="1" stroke-miterlimit="10" d="M -162.422801 -1.417412 L -143.713841 -1.417412 L -143.713841 18.426136 L -162.422801 18.426136 Z M -162.422801 -1.417412 " transform="matrix(0.998435, 0, 0, -0.998435, 211.551482, 97.409024)"/>
<path fill-rule="nonzero" fill="rgb(90.162659%, 92.329407%, 95.904541%)" fill-opacity="1" stroke-width="0.89664" stroke-linecap="butt" stroke-linejoin="miter" stroke="rgb(18.03894%, 36.077881%, 65.879822%)" stroke-opacity="1" stroke-miterlimit="10" d="M -143.146547 -1.417412 L -124.441499 -1.417412 L -124.441499 18.426136 L -143.146547 18.426136 Z M -143.146547 -1.417412 " transform="matrix(0.998435, 0, 0, -0.998435, 211.551482, 97.409024)"/>
<path fill-rule="nonzero" fill="rgb(90.162659%, 92.329407%, 95.904541%)" fill-opacity="1" stroke-width="0.89664" stroke-linecap="butt" stroke-linejoin="miter" stroke="rgb(18.03894%, 36.077881%, 65.879822%)" stroke-opacity="1" stroke-miterlimit="10" d="M -123.874205 -1.417412 L -105.165245 -1.417412 L -105.165245 18.426136 L -123.874205 18.426136 Z M -123.874205 -1.417412 " transform="matrix(0.998435, 0, 0, -0.998435, 211.551482, 97.409024)"/>
<path fill-rule="nonzero" fill="rgb(90.162659%, 92.329407%, 95.904541%)" fill-opacity="1" stroke-width="0.89664" stroke-linecap="butt" stroke-linejoin="miter" stroke="rgb(18.03894%, 36.077881%, 65.879822%)" stroke-opacity="1" stroke-miterlimit="10" d="M -104.597952 -1.417412 L -85.888992 -1.417412 L -85.888992 18.426136 L -104.597952 18.426136 Z M -104.597952 -1.417412 " transform="matrix(0.998435, 0, 0, -0.998435, 211.551482, 97.409024)"/>
<path fill-rule="nonzero" fill="rgb(90.162659%, 92.329407%, 95.904541%)" fill-opacity="1" stroke-width="0.89664" stroke-linecap="butt" stroke-linejoin="miter" stroke="rgb(18.03894%, 36.077881%, 65.879822%)" stroke-opacity="1" stroke-miterlimit="10" d="M -85.321698 -1.417412 L -66.612738 -1.417412 L -66.612738 18.426136 L -85.321698 18.426136 Z M -85.321698 -1.417412 " transform="matrix(0.998435, 0, 0, -0.998435, 211.551482, 97.409024)"/>
<path fill-rule="nonzero" fill="rgb(90.162659%, 92.329407%, 95.904541%)" fill-opacity="1" stroke-width="0.89664" stroke-linecap="butt" stroke-linejoin="miter" stroke="rgb(18.03894%, 36.077881%, 65.879822%)" stroke-opacity="1" stroke-miterlimit="10" d="M -66.045444 -1.417412 L -47.336484 -1.417412 L -47.336484 18.426136 L -66.045444 18.426136 Z M -66.045444 -1.417412 " transform="matrix(0.998435, 0, 0, -0.998435, 211.551482, 97.409024)"/>
<path fill-rule="nonzero" fill="rgb(90.162659%, 92.329407%, 95.904541%)" fill-opacity="1" stroke-width="0.89664" stroke-linecap="butt" stroke-linejoin="miter" stroke="rgb(18.03894%, 36.077881%, 65.879822%)" stroke-opacity="1" stroke-miterlimit="10" d="M -46.773102 -1.417412 L -28.064142 -1.417412 L -28.064142 18.426136 L -46.773102 18.426136 Z M -46.773102 -1.417412 " transform="matrix(0.998435, 0, 0, -0.998435, 211.551482, 97.409024)"/>
<path fill-rule="nonzero" fill="rgb(90.162659%, 92.329407%, 95.904541%)" fill-opacity="1" stroke-width="0.89664" stroke-linecap="butt" stroke-linejoin="miter" stroke="rgb(18.03894%, 36.077881%, 65.879822%)" stroke-opacity="1" stroke-miterlimit="10" d="M -27.496848 -1.417412 L -8.787888 -1.417412 L -8.787888 18.426136 L -27.496848 18.426136 Z M -27.496848 -1.417412 " transform="matrix(0.998435, 0, 0, -0.998435, 211.551482, 97.409024)"/>
<path fill-rule="nonzero" fill="rgb(90.162659%, 92.329407%, 95.904541%)" fill-opacity="1" stroke-width="0.89664" stroke-linecap="butt" stroke-linejoin="miter" stroke="rgb(18.03894%, 36.077881%, 65.879822%)" stroke-opacity="1" stroke-miterlimit="10" d="M -8.220595 -1.417412 L 10.488365 -1.417412 L 10.488365 18.426136 L -8.220595 18.426136 Z M -8.220595 -1.417412 " transform="matrix(0.998435, 0, 0, -0.998435, 211.551482, 97.409024)"/>
<path fill-rule="nonzero" fill="rgb(90.162659%, 92.329407%, 95.904541%)" fill-opacity="1" stroke-width="0.89664" stroke-linecap="butt" stroke-linejoin="miter" stroke="rgb(18.03894%, 36.077881%, 65.879822%)" stroke-opacity="1" stroke-miterlimit="10" d="M 11.055659 -1.417412 L 29.764619 -1.417412 L 29.764619 18.426136 L 11.055659 18.426136 Z M 11.055659 -1.417412 " transform="matrix(0.998435, 0, 0, -0.998435, 211.551482, 97.409024)"/>
<path fill-rule="nonzero" fill="rgb(90.162659%, 92.329407%, 95.904541%)" fill-opacity="1" stroke-width="0.89664" stroke-linecap="butt" stroke-linejoin="miter" stroke="rgb(18.03894%, 36.077881%, 65.879822%)" stroke-opacity="1" stroke-miterlimit="10" d="M 30.331913 -1.417412 L 49.036961 -1.417412 L 49.036961 18.426136 L 30.331913 18.426136 Z M 30.331913 -1.417412 " transform="matrix(0.998435, 0, 0, -0.998435, 211.551482, 97.409024)"/>
<path fill-rule="nonzero" fill="rgb(90.162659%, 92.329407%, 95.904541%)" fill-opacity="1" stroke-width="0.89664" stroke-linecap="butt" stroke-linejoin="miter" stroke="rgb(18.03894%, 36.077881%, 65.879822%)" stroke-opacity="1" stroke-miterlimit="10" d="M 49.604255 -1.417412 L 68.313215 -1.417412 L 68.313215 18.426136 L 49.604255 18.426136 Z M 49.604255 -1.417412 " transform="matrix(0.998435, 0, 0, -0.998435, 211.551482, 97.409024)"/>
<path fill-rule="nonzero" fill="rgb(90.162659%, 92.329407%, 95.904541%)" fill-opacity="1" stroke-width="0.89664" stroke-linecap="butt" stroke-linejoin="miter" stroke="rgb(18.03894%, 36.077881%, 65.879822%)" stroke-opacity="1" stroke-miterlimit="10" d="M 68.880509 -1.417412 L 87.589469 -1.417412 L 87.589469 18.426136 L 68.880509 18.426136 Z M 68.880509 -1.417412 " transform="matrix(0.998435, 0, 0, -0.998435, 211.551482, 97.409024)"/>
<path fill-rule="nonzero" fill="rgb(90.162659%, 92.329407%, 95.904541%)" fill-opacity="1" stroke-width="0.89664" stroke-linecap="butt" stroke-linejoin="miter" stroke="rgb(18.03894%, 36.077881%, 65.879822%)" stroke-opacity="1" stroke-miterlimit="10" d="M 88.156762 -1.417412 L 106.865722 -1.417412 L 106.865722 18.426136 L 88.156762 18.426136 Z M 88.156762 -1.417412 " transform="matrix(0.998435, 0, 0, -0.998435, 211.551482, 97.409024)"/>
<path fill-rule="nonzero" fill="rgb(98.298645%, 92.695618%, 88.415527%)" fill-opacity="1" stroke-width="0.89664" stroke-linecap="butt" stroke-linejoin="miter" stroke="rgb(87.841797%, 47.840881%, 17.254639%)" stroke-opacity="1" stroke-miterlimit="10" d="M 124.440095 -1.417412 L 143.149055 -1.417412 L 143.149055 18.426136 L 124.440095 18.426136 Z M 124.440095 -1.417412 " transform="matrix(0.998435, 0, 0, -0.998435, 211.551482, 97.409024)"/>
<path fill-rule="nonzero" fill="rgb(98.298645%, 92.695618%, 88.415527%)" fill-opacity="1" stroke-width="0.89664" stroke-linecap="butt" stroke-linejoin="miter" stroke="rgb(87.841797%, 47.840881%, 17.254639%)" stroke-opacity="1" stroke-miterlimit="10" d="M 143.716349 -1.417412 L 162.425309 -1.417412 L 162.425309 18.426136 L 143.716349 18.426136 Z M 143.716349 -1.417412 " transform="matrix(0.998435, 0, 0, -0.998435, 211.551482, 97.409024)"/>
<path fill-rule="nonzero" fill="rgb(98.298645%, 92.695618%, 88.415527%)" fill-opacity="1" stroke-width="0.89664" stroke-linecap="butt" stroke-linejoin="miter" stroke="rgb(87.841797%, 47.840881%, 17.254639%)" stroke-opacity="1" stroke-miterlimit="10" d="M 162.98869 -1.417412 L 181.69765 -1.417412 L 181.69765 18.426136 L 162.98869 18.426136 Z M 162.98869 -1.417412 " transform="matrix(0.998435, 0, 0, -0.998435, 211.551482, 97.409024)"/>
<path fill-rule="nonzero" fill="rgb(98.298645%, 92.695618%, 88.415527%)" fill-opacity="1" stroke-width="0.89664" stroke-linecap="butt" stroke-linejoin="miter" stroke="rgb(87.841797%, 47.840881%, 17.254639%)" stroke-opacity="1" stroke-miterlimit="10" d="M 182.264944 -1.417412 L 200.973904 -1.417412 L 200.973904 18.426136 L 182.264944 18.426136 Z M 182.264944 -1.417412 " transform="matrix(0.998435, 0, 0, -0.998435, 211.551482, 97.409024)"/>
<path fill="none" stroke-width="0.99628" stroke-linecap="butt" stroke-linejoin="miter" stroke="rgb(18.03894%, 36.077881%, 65.879822%)" stroke-opacity="1" stroke-miterlimit="10" d="M -201.421319 -7.536361 C -200.674056 -9.030887 -198.933051 -10.024629 -196.44087 -10.024629 L -52.035242 -10.024629 C -49.546974 -10.024629 -47.802056 -11.022284 -47.054793 -12.51681 C -46.30753 -11.022284 -44.562612 -10.024629 -42.074344 -10.024629 L 102.331284 -10.024629 C 104.823465 -10.024629 106.56447 -9.030887 107.311733 -7.536361 " transform="matrix(0.998435, 0, 0, -0.998435, 211.551482, 97.409024)"/>
<path fill="none" stroke-width="0.99628" stroke-linecap="butt" stroke-linejoin="miter" stroke="rgb(87.841797%, 47.840881%, 17.254639%)" stroke-opacity="1" stroke-miterlimit="10" d="M 123.990172 -7.536361 C 124.737435 -9.030887 126.482353 -10.024629 128.974533 -10.024629 L 157.726551 -10.024629 C 160.214819 -10.024629 161.959737 -11.022284 162.706999 -12.51681 C 163.454262 -11.022284 165.19918 -10.024629 167.687448 -10.024629 L 196.439466 -10.024629 C 198.931646 -10.024629 200.676564 -9.030887 201.423827 -7.536361 " transform="matrix(0.998435, 0, 0, -0.998435, 211.551482, 97.409024)"/>
<g fill="rgb(18.03894%, 36.077881%, 65.879822%)" fill-opacity="1">
<use xlink:href="#glyph-2-0" x="115.008772" y="126.599281"/>
<use xlink:href="#glyph-2-1" x="117.922951" y="126.599281"/>
</g>
<g fill="rgb(18.03894%, 36.077881%, 65.879822%)" fill-opacity="1">
<use xlink:href="#glyph-2-2" x="121.054332" y="126.599281"/>
<use xlink:href="#glyph-2-3" x="125.674665" y="126.599281"/>
<use xlink:href="#glyph-2-4" x="127.831157" y="126.599281"/>
</g>
<g fill="rgb(18.03894%, 36.077881%, 65.879822%)" fill-opacity="1">
<use xlink:href="#glyph-3-0" x="139.470439" y="126.599281"/>
<use xlink:href="#glyph-3-1" x="144.393846" y="126.599281"/>
<use xlink:href="#glyph-3-2" x="149.414392" y="126.599281"/>
</g>
<g fill="rgb(18.03894%, 36.077881%, 65.879822%)" fill-opacity="1">
<use xlink:href="#glyph-4-0" x="163.914134" y="126.599281"/>
<use xlink:href="#glyph-4-1" x="166.453498" y="126.599281"/>
<use xlink:href="#glyph-4-2" x="170.700279" y="126.599281"/>
<use xlink:href="#glyph-4-2" x="175.018116" y="126.599281"/>
</g>
<g fill="rgb(18.03894%, 36.077881%, 65.879822%)" fill-opacity="1">
<use xlink:href="#glyph-4-3" x="181.29088" y="126.599281"/>
<use xlink:href="#glyph-4-4" x="185.55432" y="126.599281"/>
<use xlink:href="#glyph-4-5" x="189.613767" y="126.599281"/>
<use xlink:href="#glyph-4-6" x="193.727613" y="126.599281"/>
<use xlink:href="#glyph-4-7" x="197.997852" y="126.599281"/>
<use xlink:href="#glyph-4-8" x="202.115097" y="126.599281"/>
<use xlink:href="#glyph-4-5" x="203.801434" y="126.599281"/>
<use xlink:href="#glyph-4-9" x="207.915279" y="126.599281"/>
<use xlink:href="#glyph-4-10" x="211.590201" y="126.599281"/>
</g>
<g fill="rgb(87.841797%, 47.840881%, 17.254639%)" fill-opacity="1">
<use xlink:href="#glyph-2-0" x="344.332404" y="126.922774"/>
</g>
<g fill="rgb(87.841797%, 47.840881%, 17.254639%)" fill-opacity="1">
<use xlink:href="#glyph-2-5" x="347.168871" y="126.922774"/>
<use xlink:href="#glyph-2-6" x="351.909268" y="126.922774"/>
<use xlink:href="#glyph-2-0" x="356.366406" y="126.922774"/>
</g>
<g fill="rgb(87.841797%, 47.840881%, 17.254639%)" fill-opacity="1">
<use xlink:href="#glyph-3-3" x="365.965504" y="126.922774"/>
<use xlink:href="#glyph-3-1" x="370.81897" y="126.922774"/>
<use xlink:href="#glyph-3-2" x="375.839517" y="126.922774"/>
</g>
<g fill="rgb(87.841797%, 47.840881%, 17.254639%)" fill-opacity="1">
<use xlink:href="#glyph-4-0" x="390.339308" y="126.922774"/>
<use xlink:href="#glyph-4-2" x="392.878672" y="126.922774"/>
<use xlink:href="#glyph-4-11" x="397.19651" y="126.922774"/>
<use xlink:href="#glyph-4-12" x="401.136962" y="126.922774"/>
</g>
<g fill="rgb(10.586548%, 16.471863%, 29.019165%)" fill-opacity="1">
<use xlink:href="#glyph-3-4" x="124.057592" y="145.063346"/>
<use xlink:href="#glyph-3-5" x="126.660536" y="145.063346"/>
<use xlink:href="#glyph-3-6" x="131.365963" y="145.063346"/>
</g>
<g fill="rgb(10.586548%, 16.471863%, 29.019165%)" fill-opacity="1">
<use xlink:href="#glyph-3-7" x="138.243423" y="145.063346"/>
<use xlink:href="#glyph-3-8" x="145.214138" y="145.063346"/>
<use xlink:href="#glyph-3-9" x="149.985619" y="145.063346"/>
<use xlink:href="#glyph-3-6" x="154.858125" y="145.063346"/>
<use xlink:href="#glyph-3-10" x="159.497497" y="145.063346"/>
</g>
<g fill="rgb(10.586548%, 16.471863%, 29.019165%)" fill-opacity="1">
<use xlink:href="#glyph-2-6" x="163.663527" y="145.063346"/>
<use xlink:href="#glyph-2-5" x="168.120665" y="145.063346"/>
<use xlink:href="#glyph-2-5" x="172.861062" y="145.063346"/>
<use xlink:href="#glyph-2-6" x="177.601458" y="145.063346"/>
</g>
<g fill="rgb(10.586548%, 16.471863%, 29.019165%)" fill-opacity="1">
<use xlink:href="#glyph-3-4" x="184.296194" y="145.063346"/>
<use xlink:href="#glyph-3-5" x="186.899138" y="145.063346"/>
<use xlink:href="#glyph-3-6" x="191.604564" y="145.063346"/>
<use xlink:href="#glyph-3-11" x="196.243936" y="145.063346"/>
<use xlink:href="#glyph-3-6" x="200.44385" y="145.063346"/>
</g>
<g fill="rgb(10.586548%, 16.471863%, 29.019165%)" fill-opacity="1">
<use xlink:href="#glyph-4-13" x="129.413199" y="154.513537"/>
<use xlink:href="#glyph-4-5" x="133.323052" y="154.513537"/>
<use xlink:href="#glyph-4-14" x="137.436898" y="154.513537"/>
</g>
<g fill="rgb(10.586548%, 16.471863%, 29.019165%)" fill-opacity="1">
<use xlink:href="#glyph-4-15" x="143.655264" y="154.513537"/>
<use xlink:href="#glyph-4-4" x="145.3416" y="154.513537"/>
</g>
<g fill="rgb(10.586548%, 16.471863%, 29.019165%)" fill-opacity="1">
<use xlink:href="#glyph-4-13" x="149.469045" y="154.513537"/>
<use xlink:href="#glyph-4-16" x="153.378898" y="154.513537"/>
</g>
<g fill="rgb(10.586548%, 16.471863%, 29.019165%)" fill-opacity="1">
<use xlink:href="#glyph-4-5" x="156.109335" y="154.513537"/>
<use xlink:href="#glyph-4-9" x="160.223181" y="154.513537"/>
</g>
<g fill="rgb(10.586548%, 16.471863%, 29.019165%)" fill-opacity="1">
<use xlink:href="#glyph-4-17" x="165.856429" y="154.513537"/>
<use xlink:href="#glyph-4-16" x="168.433532" y="154.513537"/>
</g>
<g fill="rgb(10.586548%, 16.471863%, 29.019165%)" fill-opacity="1">
<use xlink:href="#glyph-4-18" x="170.942978" y="154.513537"/>
<use xlink:href="#glyph-4-19" x="175.118021" y="154.513537"/>
</g>
<g fill="rgb(10.586548%, 16.471863%, 29.019165%)" fill-opacity="1">
<use xlink:href="#glyph-4-20" x="183.172318" y="154.513537"/>
<use xlink:href="#glyph-4-21" x="185.449892" y="154.513537"/>
<use xlink:href="#glyph-4-4" x="189.567137" y="154.513537"/>
<use xlink:href="#glyph-4-19" x="193.626584" y="154.513537"/>
</g>
<g fill="rgb(10.586548%, 16.471863%, 29.019165%)" fill-opacity="1">
<use xlink:href="#glyph-3-4" x="321.64995" y="145.06734"/>
<use xlink:href="#glyph-3-5" x="324.252894" y="145.06734"/>
<use xlink:href="#glyph-3-6" x="328.95832" y="145.06734"/>
</g>
<g fill="rgb(10.586548%, 16.471863%, 29.019165%)" fill-opacity="1">
<use xlink:href="#glyph-3-7" x="335.835781" y="145.06734"/>
<use xlink:href="#glyph-3-8" x="342.806495" y="145.06734"/>
<use xlink:href="#glyph-3-9" x="347.577976" y="145.06734"/>
<use xlink:href="#glyph-3-6" x="352.450482" y="145.06734"/>
<use xlink:href="#glyph-3-10" x="357.089854" y="145.06734"/>
</g>
<g fill="rgb(10.586548%, 16.471863%, 29.019165%)" fill-opacity="1">
<use xlink:href="#glyph-2-4" x="361.255884" y="145.06734"/>
<use xlink:href="#glyph-2-5" x="366.210376" y="145.06734"/>
</g>
<g fill="rgb(10.586548%, 16.471863%, 29.019165%)" fill-opacity="1">
<use xlink:href="#glyph-2-7" x="370.807006" y="145.06734"/>
</g>
<g fill="rgb(10.586548%, 16.471863%, 29.019165%)" fill-opacity="1">
<use xlink:href="#glyph-2-5" x="375.434721" y="145.06734"/>
<use xlink:href="#glyph-2-1" x="380.175118" y="145.06734"/>
</g>
<g fill="rgb(10.586548%, 16.471863%, 29.019165%)" fill-opacity="1">
<use xlink:href="#glyph-3-11" x="385.653651" y="145.06734"/>
<use xlink:href="#glyph-3-6" x="389.853564" y="145.06734"/>
<use xlink:href="#glyph-3-6" x="394.492936" y="145.06734"/>
<use xlink:href="#glyph-3-11" x="399.132308" y="145.06734"/>
</g>
<g fill="rgb(10.586548%, 16.471863%, 29.019165%)" fill-opacity="1">
<use xlink:href="#glyph-3-4" x="405.566425" y="145.06734"/>
<use xlink:href="#glyph-3-5" x="408.169369" y="145.06734"/>
<use xlink:href="#glyph-3-6" x="412.874796" y="145.06734"/>
<use xlink:href="#glyph-3-11" x="417.514167" y="145.06734"/>
<use xlink:href="#glyph-3-6" x="421.714081" y="145.06734"/>
</g>
<g fill="rgb(10.586548%, 16.471863%, 29.019165%)" fill-opacity="1">
<use xlink:href="#glyph-4-7" x="348.131451" y="154.516532"/>
<use xlink:href="#glyph-4-5" x="352.248696" y="154.516532"/>
<use xlink:href="#glyph-4-20" x="356.362541" y="154.516532"/>
<use xlink:href="#glyph-4-8" x="358.640116" y="154.516532"/>
<use xlink:href="#glyph-4-15" x="360.326452" y="154.516532"/>
</g>
<g fill="rgb(10.586548%, 16.471863%, 29.019165%)" fill-opacity="1">
<use xlink:href="#glyph-4-22" x="363.971115" y="154.516532"/>
</g>
<g fill="rgb(10.586548%, 16.471863%, 29.019165%)" fill-opacity="1">
<use xlink:href="#glyph-4-4" x="369.543846" y="154.516532"/>
</g>
<g fill="rgb(10.586548%, 16.471863%, 29.019165%)" fill-opacity="1">
<use xlink:href="#glyph-4-9" x="375.561619" y="154.516532"/>
<use xlink:href="#glyph-4-23" x="379.236541" y="154.516532"/>
<use xlink:href="#glyph-4-18" x="383.214392" y="154.516532"/>
<use xlink:href="#glyph-4-16" x="387.389435" y="154.516532"/>
</g>
<g fill="rgb(10.586548%, 16.471863%, 29.019165%)" fill-opacity="1">
<use xlink:href="#glyph-4-4" x="389.89548" y="154.516532"/>
</g>
<g fill="rgb(10.586548%, 16.471863%, 29.019165%)" fill-opacity="1">
<use xlink:href="#glyph-4-8" x="395.913254" y="154.516532"/>
<use xlink:href="#glyph-4-20" x="397.599591" y="154.516532"/>
</g>
<path fill-rule="nonzero" fill="rgb(98.783875%, 94.784546%, 91.723633%)" fill-opacity="1" d="M 351.660156 177.675781 L 71.441406 177.675781 C 69.792969 177.675781 68.457031 179.015625 68.457031 180.660156 L 68.457031 195.289062 C 68.457031 196.9375 69.792969 198.273438 71.441406 198.273438 L 351.660156 198.273438 C 353.308594 198.273438 354.644531 196.9375 354.644531 195.289062 L 354.644531 180.660156 C 354.644531 179.015625 353.308594 177.675781 351.660156 177.675781 Z M 351.660156 177.675781 "/>
<g clip-path="url(#clip-0)">
<path fill="none" stroke-width="0.89664" stroke-linecap="butt" stroke-linejoin="miter" stroke="rgb(87.841797%, 47.840881%, 17.254639%)" stroke-opacity="1" stroke-miterlimit="10" d="M 140.328235 -80.392541 L -140.32964 -80.392541 C -141.98066 -80.392541 -143.318691 -81.734485 -143.318691 -83.381593 L -143.318691 -98.033424 C -143.318691 -99.684445 -141.98066 -101.022476 -140.32964 -101.022476 L 140.328235 -101.022476 C 141.979256 -101.022476 143.317287 -99.684445 143.317287 -98.033424 L 143.317287 -83.381593 C 143.317287 -81.734485 141.979256 -80.392541 140.328235 -80.392541 Z M 140.328235 -80.392541 " transform="matrix(0.998435, 0, 0, -0.998435, 211.551482, 97.409024)"/>
</g>
<g fill="rgb(10.586548%, 16.471863%, 29.019165%)" fill-opacity="1">
<use xlink:href="#glyph-5-0" x="74.427367" y="190.373342"/>
<use xlink:href="#glyph-5-1" x="78.724315" y="190.373342"/>
</g>
<g fill="rgb(10.586548%, 16.471863%, 29.019165%)" fill-opacity="1">
<use xlink:href="#glyph-5-2" x="84.11845" y="190.373342"/>
<use xlink:href="#glyph-5-3" x="89.490728" y="190.373342"/>
</g>
<g fill="rgb(10.586548%, 16.471863%, 29.019165%)" fill-opacity="1">
<use xlink:href="#glyph-5-4" x="97.30217" y="190.373342"/>
<use xlink:href="#glyph-5-2" x="102.788101" y="190.373342"/>
<use xlink:href="#glyph-5-5" x="108.160379" y="190.373342"/>
<use xlink:href="#glyph-5-6" x="113.453975" y="190.373342"/>
<use xlink:href="#glyph-5-7" x="116.1423" y="190.373342"/>
</g>
<g fill="rgb(10.586548%, 16.471863%, 29.019165%)" fill-opacity="1">
<use xlink:href="#glyph-5-8" x="121.597195" y="190.373342"/>
<use xlink:href="#glyph-5-9" x="127.087497" y="190.373342"/>
</g>
<g fill="rgb(10.586548%, 16.471863%, 29.019165%)" fill-opacity="1">
<use xlink:href="#glyph-5-10" x="130.318296" y="190.373342"/>
<use xlink:href="#glyph-5-4" x="135.813406" y="190.373342"/>
<use xlink:href="#glyph-5-11" x="141.299338" y="190.373342"/>
</g>
<g fill="rgb(10.586548%, 16.471863%, 29.019165%)" fill-opacity="1">
<use xlink:href="#glyph-5-10" x="148.966527" y="190.373342"/>
</g>
<g fill="rgb(10.586548%, 16.471863%, 29.019165%)" fill-opacity="1">
<use xlink:href="#glyph-5-12" x="156.979484" y="190.373342"/>
<use xlink:href="#glyph-5-7" x="161.700007" y="190.373342"/>
<use xlink:href="#glyph-5-3" x="164.637057" y="190.373342"/>
<use xlink:href="#glyph-5-4" x="169.935024" y="190.373342"/>
<use xlink:href="#glyph-5-11" x="175.420955" y="190.373342"/>
<use xlink:href="#glyph-5-5" x="180.574671" y="190.373342"/>
<use xlink:href="#glyph-5-7" x="185.868266" y="190.373342"/>
</g>
<g fill="rgb(10.586548%, 16.471863%, 29.019165%)" fill-opacity="1">
<use xlink:href="#glyph-5-2" x="191.323162" y="190.373342"/>
<use xlink:href="#glyph-5-5" x="196.69544" y="190.373342"/>
</g>
<g fill="rgb(10.586548%, 16.471863%, 29.019165%)" fill-opacity="1">
<use xlink:href="#glyph-5-7" x="204.506881" y="190.373342"/>
<use xlink:href="#glyph-5-13" x="207.443931" y="190.373342"/>
<use xlink:href="#glyph-5-11" x="212.737527" y="190.373342"/>
</g>
<g fill="rgb(10.586548%, 16.471863%, 29.019165%)" fill-opacity="1">
<use xlink:href="#glyph-5-11" x="220.409088" y="190.373342"/>
</g>
<g fill="rgb(10.586548%, 16.471863%, 29.019165%)" fill-opacity="1">
<use xlink:href="#glyph-5-14" x="225.366096" y="190.373342"/>
</g>
<g fill="rgb(10.586548%, 16.471863%, 29.019165%)" fill-opacity="1">
<use xlink:href="#glyph-5-10" x="230.052087" y="190.373342"/>
<use xlink:href="#glyph-5-15" x="235.547198" y="190.373342"/>
<use xlink:href="#glyph-5-7" x="240.665943" y="190.373342"/>
</g>
<g fill="rgb(10.586548%, 16.471863%, 29.019165%)" fill-opacity="1">
<use xlink:href="#glyph-5-16" x="246.116467" y="190.373342"/>
<use xlink:href="#glyph-5-3" x="251.602398" y="190.373342"/>
<use xlink:href="#glyph-5-11" x="256.900365" y="190.373342"/>
<use xlink:href="#glyph-5-12" x="262.054081" y="190.373342"/>
<use xlink:href="#glyph-5-7" x="266.774604" y="190.373342"/>
<use xlink:href="#glyph-5-17" x="269.711654" y="190.373342"/>
<use xlink:href="#glyph-5-2" x="271.88417" y="190.373342"/>
<use xlink:href="#glyph-5-5" x="277.256448" y="190.373342"/>
<use xlink:href="#glyph-5-12" x="282.550044" y="190.373342"/>
</g>
<g fill="rgb(10.586548%, 16.471863%, 29.019165%)" fill-opacity="1">
<use xlink:href="#glyph-5-7" x="289.788413" y="190.373342"/>
<use xlink:href="#glyph-5-13" x="292.725463" y="190.373342"/>
<use xlink:href="#glyph-5-11" x="298.019059" y="190.373342"/>
</g>
<g fill="rgb(10.586548%, 16.471863%, 29.019165%)" fill-opacity="1">
<use xlink:href="#glyph-5-18" x="303.002295" y="190.373342"/>
</g>
<g fill="rgb(10.586548%, 16.471863%, 29.019165%)" fill-opacity="1">
<use xlink:href="#glyph-5-12" x="310.54709" y="190.373342"/>
<use xlink:href="#glyph-5-7" x="315.267613" y="190.373342"/>
<use xlink:href="#glyph-5-3" x="318.204663" y="190.373342"/>
<use xlink:href="#glyph-5-4" x="323.50263" y="190.373342"/>
<use xlink:href="#glyph-5-17" x="328.988561" y="190.373342"/>
<use xlink:href="#glyph-5-11" x="331.161077" y="190.373342"/>
<use xlink:href="#glyph-5-4" x="336.314792" y="190.373342"/>
<use xlink:href="#glyph-5-19" x="341.800724" y="190.373342"/>
<use xlink:href="#glyph-5-20" x="344.375396" y="190.373342"/>
</g>
</svg>
